<svg width="592" height="592" viewBox="0 0 592 592" fill="none" xmlns="http://www.w3.org/2000/svg">
<path d="M494.202 387.086H525.555V373.837H494.202V387.086Z" fill="#EBEBEB"/>
<path d="M511.702 403.797H543.055V390.548H511.702V403.797Z" fill="#EBEBEB"/>
<path d="M244.39 240.781H275.742V227.532H244.39V240.781Z" fill="#EBEBEB"/>
<path d="M261.89 257.484H293.242V244.235H261.89V257.484Z" fill="#EBEBEB"/>
<path d="M279.306 240.781H310.658V227.532H279.306V240.781Z" fill="#EBEBEB"/>
<path d="M48.9465 403.781H80.2988V390.532H48.9465V403.781Z" fill="#EBEBEB"/>
<path d="M66.4465 68.5781H97.7988V55.3292H66.4465V68.5781Z" fill="#EBEBEB"/>
<path d="M48.9465 85.2891H80.2988V72.0401H48.9465V85.2891Z" fill="#EBEBEB"/>
<path d="M494.202 68.5781H525.555V55.3292H494.202V68.5781Z" fill="#EBEBEB"/>
<path d="M533.558 84.375H364.482V273.01H533.558V84.375Z" fill="#DBDBDB"/>
<path d="M522.429 95.5156H375.625V261.974H522.429V95.5156Z" fill="#EBEBEB"/>
<path d="M440.637 124.953H388.896V186.272H440.637V124.953Z" fill="white"/>
<path d="M416.626 129.117C416.626 129.484 416.517 129.844 416.313 130.149C416.108 130.455 415.818 130.693 415.478 130.834C415.139 130.975 414.765 131.012 414.404 130.94C414.044 130.868 413.713 130.691 413.453 130.431C413.193 130.171 413.016 129.84 412.944 129.479C412.872 129.119 412.909 128.745 413.05 128.405C413.19 128.066 413.429 127.775 413.734 127.571C414.04 127.367 414.399 127.258 414.767 127.258C415.26 127.258 415.733 127.454 416.082 127.802C416.43 128.151 416.626 128.624 416.626 129.117Z" fill="#A6A6A6"/>
<path d="M398.748 137.225C403.981 136.822 409.215 136.799 414.436 136.739C419.657 136.68 424.903 136.822 430.136 137.225C424.903 137.627 419.669 137.651 414.436 137.71C409.203 137.77 403.981 137.627 398.748 137.225Z" fill="#EBEBEB"/>
<path d="M398.748 142.079C404.417 141.432 410.141 141.432 415.809 142.079C412.978 142.43 410.126 142.592 407.273 142.565C404.424 142.586 401.576 142.424 398.748 142.079Z" fill="#EBEBEB"/>
<path d="M398.748 146.926C402.372 146.581 406.012 146.419 409.653 146.44C413.29 146.413 416.925 146.575 420.545 146.926C416.911 147.305 413.288 147.388 409.653 147.411C406.018 147.435 402.383 147.305 398.748 146.926Z" fill="#EBEBEB"/>
<path d="M398.748 151.767C403.295 151.389 407.841 151.294 412.388 151.282C416.934 151.27 421.481 151.389 426.027 151.767C421.481 152.146 416.934 152.241 412.388 152.253C407.841 152.265 403.295 152.146 398.748 151.767Z" fill="#EBEBEB"/>
<path d="M398.748 156.613C402.691 156.234 406.645 156.151 410.588 156.128C414.531 156.104 418.485 156.234 422.428 156.613C418.473 156.992 414.519 157.087 410.588 157.099C406.657 157.11 402.691 156.992 398.748 156.613Z" fill="#EBEBEB"/>
<path d="M398.748 161.451C403.804 161.049 408.859 161.025 413.915 160.966C418.971 160.907 424.026 161.049 429.082 161.451C424.026 161.866 418.971 161.89 413.915 161.949C408.859 162.008 403.804 161.854 398.748 161.451Z" fill="#EBEBEB"/>
<path d="M398.748 166.309C402 165.964 405.269 165.802 408.54 165.823C411.814 165.796 415.087 165.958 418.343 166.309C411.828 166.956 405.264 166.956 398.748 166.309Z" fill="#EBEBEB"/>
<path d="M398.748 171.147C403.981 170.744 409.215 170.721 414.436 170.661C419.657 170.602 424.903 170.744 430.136 171.147C424.903 171.549 419.669 171.573 414.436 171.632C409.203 171.691 403.981 171.549 398.748 171.147Z" fill="#EBEBEB"/>
<path d="M398.748 175.991C403.981 175.588 409.215 175.564 414.436 175.505C419.657 175.446 424.903 175.588 430.136 175.991C424.903 176.393 419.669 176.429 414.436 176.476C409.203 176.523 403.981 176.417 398.748 175.991Z" fill="#EBEBEB"/>
<path d="M509.748 163.18H448.523V235.735H509.748V163.18Z" fill="white"/>
<path d="M455.995 168.46C455.995 168.828 455.886 169.187 455.682 169.493C455.478 169.799 455.187 170.037 454.848 170.178C454.508 170.319 454.134 170.355 453.774 170.284C453.413 170.212 453.082 170.035 452.822 169.775C452.562 169.515 452.385 169.184 452.313 168.823C452.241 168.462 452.278 168.089 452.419 167.749C452.56 167.409 452.798 167.119 453.103 166.915C453.409 166.711 453.769 166.602 454.136 166.602C454.629 166.602 455.102 166.797 455.451 167.146C455.799 167.495 455.995 167.967 455.995 168.46Z" fill="#A6A6A6"/>
<path d="M457.084 181.288C459.333 180.946 461.605 180.779 463.88 180.79C466.151 180.773 468.42 180.94 470.664 181.288C466.161 181.935 461.588 181.935 457.084 181.288Z" fill="#EBEBEB"/>
<path d="M457.084 186.756C460.004 186.414 462.941 186.248 465.881 186.259C468.817 186.242 471.751 186.408 474.666 186.756C468.823 187.404 462.927 187.404 457.084 186.756Z" fill="#EBEBEB"/>
<path d="M457.084 192.223C459.785 191.879 462.507 191.716 465.23 191.737C467.953 191.71 470.675 191.872 473.376 192.223C467.965 192.87 462.495 192.87 457.084 192.223Z" fill="#EBEBEB"/>
<path d="M457.084 197.731C459.785 197.386 462.507 197.224 465.23 197.245C467.953 197.218 470.675 197.38 473.376 197.731C467.965 198.378 462.495 198.378 457.084 197.731Z" fill="#EBEBEB"/>
<path d="M457.084 203.168C459.436 202.823 461.811 202.661 464.188 202.683C466.565 202.655 468.941 202.817 471.292 203.168C466.578 203.82 461.798 203.82 457.084 203.168Z" fill="#EBEBEB"/>
<path d="M457.084 208.637C460.091 208.292 463.115 208.13 466.142 208.151C469.168 208.124 472.193 208.286 475.199 208.637C469.178 209.284 463.105 209.284 457.084 208.637Z" fill="#EBEBEB"/>
<path d="M457.084 214.103C462.048 213.455 467.074 213.455 472.038 214.103C467.074 214.75 462.048 214.75 457.084 214.103Z" fill="#EBEBEB"/>
<path d="M457.084 219.579C463.315 218.932 469.596 218.932 475.827 219.579C469.596 220.227 463.315 220.227 457.084 219.579Z" fill="#EBEBEB"/>
<path d="M457.084 225.048C463.315 224.401 469.596 224.401 475.827 225.048C469.596 225.695 463.315 225.695 457.084 225.048Z" fill="#EBEBEB"/>
<path d="M483.842 181.288C486.797 180.945 489.77 180.779 492.746 180.79C495.717 180.773 498.686 180.939 501.637 181.288C495.735 181.932 489.78 181.932 483.877 181.288H483.842Z" fill="#EBEBEB"/>
<path d="M483.842 186.756C485.773 186.415 487.73 186.249 489.691 186.259C491.652 186.242 493.61 186.408 495.54 186.756C491.667 187.403 487.714 187.403 483.842 186.756Z" fill="#EBEBEB"/>
<path d="M483.842 192.223C486.619 191.879 489.415 191.716 492.213 191.737C495.011 191.71 497.807 191.872 500.584 192.223C495.022 192.87 489.404 192.87 483.842 192.223Z" fill="#EBEBEB"/>
<path d="M483.842 197.731C486.543 197.386 489.265 197.224 491.988 197.245C494.711 197.218 497.433 197.38 500.134 197.731C494.722 198.378 489.253 198.378 483.842 197.731Z" fill="#EBEBEB"/>
<path d="M483.842 203.168C486.797 202.823 489.77 202.661 492.746 202.683C495.717 202.655 498.687 202.818 501.637 203.168C495.735 203.813 489.78 203.813 483.877 203.168H483.842Z" fill="#EBEBEB"/>
<path d="M483.842 208.637C486.194 208.292 488.569 208.129 490.946 208.152C493.323 208.123 495.699 208.285 498.05 208.637C493.336 209.29 488.555 209.29 483.842 208.637Z" fill="#EBEBEB"/>
<path d="M483.842 214.103C489.404 213.455 495.022 213.455 500.584 214.103C495.022 214.75 489.404 214.75 483.842 214.103Z" fill="#EBEBEB"/>
<path d="M483.842 219.579C488.135 218.932 492.501 218.932 496.795 219.579C492.501 220.227 488.135 220.227 483.842 219.579Z" fill="#EBEBEB"/>
<path d="M483.842 225.048C487.957 224.401 492.147 224.401 496.262 225.048C492.147 225.695 487.957 225.695 483.842 225.048Z" fill="#EBEBEB"/>
<path d="M467.018 108.094H435.879V139.233H467.018V108.094Z" fill="#A6A6A6"/>
<path d="M453.308 111.296C453.308 111.664 453.199 112.023 452.994 112.329C452.79 112.635 452.5 112.873 452.16 113.014C451.82 113.154 451.447 113.191 451.086 113.12C450.725 113.048 450.394 112.871 450.134 112.611C449.874 112.351 449.697 112.02 449.626 111.659C449.554 111.298 449.591 110.925 449.731 110.585C449.872 110.245 450.11 109.955 450.416 109.751C450.722 109.547 451.081 109.437 451.449 109.438C451.942 109.438 452.415 109.633 452.763 109.982C453.112 110.331 453.308 110.803 453.308 111.296Z" fill="#EBEBEB"/>
<path d="M522.299 95.5156H518.096V262.164H522.299V95.5156Z" fill="#C7C7C7"/>
<path d="M185.456 141.228C201.864 118.25 196.538 86.3205 173.56 69.912C150.582 53.5034 118.652 58.8294 102.244 81.8079C85.835 104.786 91.1609 136.716 114.139 153.124C137.118 169.533 169.047 164.207 185.456 141.228Z" fill="#EBEBEB"/>
<path d="M185.204 141.911C201.369 120.358 197.001 89.7824 175.448 73.6178C153.896 57.4532 123.32 61.8212 107.155 83.3738C90.9907 104.927 95.3586 135.502 116.911 151.667C138.464 167.832 169.04 163.464 185.204 141.911Z" fill="#DBDBDB"/>
<path d="M172.684 149.883C193.245 135.244 198.046 106.707 183.407 86.1458C168.767 65.5841 140.231 60.7832 119.67 75.4227C99.108 90.0621 94.3071 118.598 108.946 139.16C123.586 159.722 152.122 164.522 172.684 149.883Z" fill="white"/>
<path opacity="0.5" d="M190.85 103.011C170.036 115.62 135.83 136.305 116.72 147.647C111.295 143.078 107.006 137.31 104.193 130.799L167.454 72.2266C173.366 75.3373 178.524 79.7056 182.566 85.024C186.608 90.3424 189.436 96.4819 190.85 103.011Z" fill="#EBEBEB"/>
<path opacity="0.5" d="M191.809 114.258C191.651 119.322 190.646 124.325 188.837 129.058L131.828 156.017C129.346 155.191 126.938 154.157 124.629 152.927C141.856 143.017 173.315 124.914 191.809 114.258Z" fill="#EBEBEB"/>
<path d="M146.628 70.2734H145.74V77.1998H146.628V70.2734Z" fill="#C7C7C7"/>
<path d="M125.38 75.7122L124.611 76.1562L128.075 82.1547L128.844 81.7107L125.38 75.7122Z" fill="#C7C7C7"/>
<path d="M110.055 90.6259L109.611 91.3984L115.637 94.8616L116.081 94.0891L110.055 90.6259Z" fill="#C7C7C7"/>
<path d="M110.729 112.219H103.803V113.107H110.729V112.219Z" fill="#C7C7C7"/>
<path d="M115.244 130.012L109.246 133.477L109.69 134.246L115.688 130.781L115.244 130.012Z" fill="#C7C7C7"/>
<path d="M128.065 143.164L124.604 149.164L125.373 149.608L128.834 143.608L128.065 143.164Z" fill="#C7C7C7"/>
<path d="M146.628 148.117H145.74V155.044H146.628V148.117Z" fill="#C7C7C7"/>
<path d="M164.294 143.134L163.525 143.578L166.989 149.577L167.758 149.133L164.294 143.134Z" fill="#C7C7C7"/>
<path d="M177.116 130.012L176.672 130.781L182.67 134.245L183.114 133.477L177.116 130.012Z" fill="#C7C7C7"/>
<path d="M188.565 112.219H181.639V113.107H188.565V112.219Z" fill="#C7C7C7"/>
<path d="M182.667 91.0816L176.67 94.5469L177.114 95.3158L183.111 91.8505L182.667 91.0816Z" fill="#C7C7C7"/>
<path d="M166.997 75.7263L163.537 81.7266L164.306 82.1702L167.766 76.1699L166.997 75.7263Z" fill="#C7C7C7"/>
<path d="M146.851 73.4103L148.355 115.738L144.01 115.691L145.667 73.3984L146.851 73.4103Z" fill="#C7C7C7"/>
<path d="M173.219 97.8973L144.732 116.072L142.66 112.271L172.651 96.8672L173.219 97.8973Z" fill="#A6A6A6"/>
<path d="M147.657 112.66C147.657 112.952 147.57 113.239 147.408 113.482C147.245 113.725 147.014 113.915 146.744 114.027C146.473 114.139 146.176 114.168 145.889 114.111C145.601 114.054 145.338 113.913 145.131 113.706C144.924 113.499 144.783 113.236 144.726 112.948C144.669 112.661 144.698 112.364 144.81 112.093C144.922 111.823 145.112 111.592 145.355 111.429C145.598 111.267 145.885 111.18 146.177 111.18C146.372 111.178 146.565 111.215 146.745 111.289C146.926 111.363 147.09 111.472 147.227 111.61C147.365 111.747 147.474 111.911 147.548 112.092C147.622 112.272 147.659 112.465 147.657 112.66Z" fill="#C7C7C7"/>
<path d="M551.708 512.67L487.784 512.966L423.86 513.061L296 513.262L168.139 513.073L104.215 512.966L40.2793 512.67L104.215 512.386L168.139 512.279L296 512.078L423.86 512.279L487.784 512.386L551.708 512.67Z" fill="#263238"/>
<path d="M494.273 167.213C494.186 163.589 494.324 159.963 494.688 156.356C495.002 152.747 495.536 149.161 496.286 145.617C496.373 149.241 496.235 152.867 495.872 156.474C495.557 160.083 495.023 163.669 494.273 167.213Z" fill="#263238"/>
<path d="M487.88 168.456C485.999 165.358 484.311 162.147 482.824 158.842C481.284 155.562 479.951 152.189 478.834 148.742C482.563 154.962 485.596 161.573 487.88 168.456Z" fill="#263238"/>
<path d="M482.978 172.73C479.801 170.988 476.733 169.054 473.79 166.94C470.813 164.868 467.97 162.61 465.277 160.18C471.616 163.708 477.551 167.916 482.978 172.73Z" fill="#263238"/>
<path d="M480.858 178.874C473.607 178.995 466.365 178.32 459.262 176.861C462.882 176.774 466.504 176.912 470.107 177.276C473.72 177.59 477.31 178.124 480.858 178.874Z" fill="#263238"/>
<path d="M503.816 186.773C510.174 190.301 516.129 194.509 521.576 199.324C518.394 197.59 515.326 195.656 512.389 193.534C509.396 191.458 506.533 189.2 503.816 186.773Z" fill="#263238"/>
<path d="M505.936 180.631C513.19 180.511 520.436 181.186 527.544 182.644C523.919 182.731 520.293 182.593 516.686 182.229C513.074 181.915 509.483 181.381 505.936 180.631Z" fill="#263238"/>
<path d="M504.691 174.233C507.79 172.353 511 170.665 514.305 169.178C517.585 167.637 520.958 166.305 524.405 165.188C521.31 167.069 518.103 168.761 514.803 170.255C511.518 171.789 508.141 173.118 504.691 174.233Z" fill="#263238"/>
<path d="M500.418 169.31C502.16 166.13 504.097 163.062 506.22 160.122C508.284 157.143 510.538 154.299 512.968 151.609C509.444 157.969 505.236 163.924 500.418 169.369V169.31Z" fill="#263238"/>
<path d="M230.881 436.648C229.566 438.318 119.016 443.278 113.759 441.763C113.504 441.688 113.258 441.585 113.025 441.455C106.513 438.4 78.5708 417.301 74.1189 408.41C70.5669 401.306 91.6303 362.423 98.9829 355.757C103.873 351.341 112.942 349.6 112.942 349.6C112.942 349.6 138.54 275.719 154.323 260.256C158.289 256.372 226.843 254.857 239.086 260.445C244.331 262.813 257.082 275.837 257.438 278.205C257.734 281.627 232.171 434.955 230.881 436.648Z" fill="#37474F"/>
<path d="M231.639 436.646C230.324 438.315 119.786 443.276 114.517 441.761C114.263 441.682 114.017 441.579 113.783 441.453C124.439 412.812 174.167 278.428 175.588 277.564C177.009 276.699 242.508 277.09 258.196 278.227C258.527 281.625 232.965 434.953 231.639 436.646Z" fill="#263238"/>
<path d="M191.039 265.7C189.938 264.658 189.204 249.644 191.241 246.649C193.514 243.298 219.799 244.956 221.35 247.833C222.901 250.71 223.647 265.699 222.853 266.244C222.06 266.789 217.679 267.298 217.087 266.339C216.495 265.38 216.531 252.972 216.069 252.308C215.607 251.645 197.196 250.461 196.557 251.409C195.917 252.356 197.468 264.906 196.734 265.451C196 265.995 192.117 266.718 191.039 265.7Z" fill="#37474F"/>
<path d="M136.755 333.913L128.639 330.109L124.262 339.447L132.378 343.251L136.755 333.913Z" fill="#DBDBDB"/>
<path d="M136.363 341.427L123.133 335.227L118.139 345.883L131.368 352.083L136.363 341.427Z" fill="#C7C7C7"/>
<path d="M134.279 369.545L111.416 418.326L79.9688 403.573L102.82 354.805C107.355 345.155 116.91 340.597 126.5 345.072C136.09 349.548 138.802 359.931 134.279 369.545Z" fill="#F7B905"/>
<path opacity="0.1" d="M134.279 369.545L111.416 418.326L79.9688 403.573L102.82 354.805C107.355 345.155 116.91 340.597 126.5 345.072C136.09 349.548 138.802 359.931 134.279 369.545Z" fill="black"/>
<path d="M123.137 347.929C123.059 348.09 122.951 348.234 122.817 348.353C122.684 348.472 122.528 348.564 122.36 348.623C122.191 348.681 122.012 348.706 121.834 348.696C121.655 348.686 121.481 348.641 121.32 348.563C121.159 348.485 121.015 348.377 120.896 348.243C120.777 348.11 120.685 347.954 120.627 347.785C120.568 347.617 120.543 347.438 120.553 347.26C120.563 347.081 120.609 346.906 120.686 346.745C120.843 346.42 121.123 346.171 121.464 346.052C121.805 345.934 122.179 345.955 122.504 346.112C122.829 346.269 123.078 346.549 123.197 346.89C123.316 347.23 123.294 347.604 123.137 347.929Z" fill="white"/>
<path d="M133.615 366.269C133.502 366.511 133.319 366.713 133.09 366.85C132.862 366.988 132.598 367.054 132.331 367.042C132.065 367.029 131.808 366.938 131.594 366.78C131.379 366.622 131.216 366.403 131.125 366.153C131.035 365.902 131.02 365.63 131.084 365.371C131.148 365.112 131.287 364.878 131.483 364.698C131.68 364.518 131.926 364.4 132.189 364.359C132.453 364.319 132.722 364.357 132.964 364.47C133.125 364.545 133.27 364.651 133.39 364.782C133.51 364.913 133.603 365.067 133.664 365.234C133.724 365.401 133.751 365.579 133.743 365.757C133.735 365.934 133.691 366.109 133.615 366.269Z" fill="white"/>
<path d="M119.122 360.975C119.046 361.135 118.939 361.279 118.807 361.398C118.676 361.516 118.522 361.608 118.355 361.668C118.187 361.727 118.01 361.753 117.833 361.744C117.656 361.734 117.482 361.69 117.322 361.614C117.162 361.536 117.019 361.428 116.901 361.295C116.782 361.162 116.692 361.007 116.633 360.838C116.575 360.67 116.55 360.492 116.561 360.314C116.572 360.137 116.617 359.963 116.695 359.803C116.772 359.643 116.881 359.499 117.014 359.381C117.147 359.263 117.302 359.172 117.47 359.114C117.639 359.055 117.817 359.031 117.994 359.041C118.172 359.052 118.346 359.097 118.506 359.175C118.823 359.335 119.065 359.613 119.18 359.95C119.295 360.286 119.274 360.654 119.122 360.975Z" fill="white"/>
<path d="M114.849 373.255C114.775 373.418 114.67 373.563 114.539 373.684C114.408 373.805 114.254 373.899 114.086 373.96C113.918 374.02 113.74 374.047 113.562 374.038C113.384 374.029 113.21 373.984 113.049 373.906C112.808 373.793 112.606 373.61 112.469 373.381C112.331 373.153 112.264 372.889 112.277 372.623C112.289 372.356 112.38 372.099 112.539 371.885C112.697 371.67 112.915 371.507 113.166 371.416C113.417 371.326 113.689 371.311 113.948 371.375C114.207 371.439 114.441 371.578 114.621 371.774C114.801 371.971 114.919 372.217 114.959 372.48C115 372.744 114.961 373.013 114.849 373.255Z" fill="white"/>
<path d="M96.45 379.557C96.3762 379.719 96.2707 379.865 96.1398 379.986C96.0088 380.107 95.8549 380.201 95.6873 380.261C95.5196 380.322 95.3415 380.348 95.1634 380.339C94.9854 380.33 94.8109 380.285 94.6503 380.208C94.4902 380.13 94.3469 380.022 94.2287 379.889C94.1105 379.755 94.0197 379.6 93.9614 379.432C93.9031 379.264 93.8786 379.086 93.8891 378.908C93.8996 378.73 93.9451 378.557 94.0228 378.396C94.1005 378.236 94.2091 378.093 94.3422 377.975C94.4753 377.857 94.6304 377.766 94.7986 377.707C94.9668 377.649 95.1449 377.625 95.3226 377.635C95.5003 377.646 95.6742 377.691 95.8343 377.769C95.9932 377.845 96.1353 377.951 96.2525 378.083C96.3696 378.214 96.4595 378.367 96.5168 378.534C96.5741 378.7 96.5977 378.876 96.5862 379.052C96.5748 379.228 96.5285 379.399 96.45 379.557Z" fill="white"/>
<path d="M100.332 368.094C100.255 368.255 100.146 368.399 100.013 368.517C99.8792 368.636 99.7237 368.728 99.555 368.787C99.3862 368.845 99.2075 368.871 99.0291 368.86C98.8506 368.85 98.676 368.805 98.515 368.727C98.3541 368.649 98.2101 368.541 98.0911 368.407C97.9722 368.274 97.8807 368.118 97.8219 367.949C97.7631 367.781 97.7381 367.602 97.7483 367.424C97.7586 367.245 97.8039 367.071 97.8816 366.91C98.0386 366.585 98.3183 366.335 98.6591 366.216C99 366.098 99.374 366.119 99.699 366.276C100.024 366.433 100.273 366.713 100.392 367.054C100.511 367.394 100.489 367.769 100.332 368.094Z" fill="white"/>
<path d="M106.051 356.687C105.973 356.848 105.865 356.992 105.731 357.111C105.598 357.23 105.442 357.322 105.274 357.38C105.105 357.439 104.926 357.464 104.748 357.454C104.569 357.444 104.395 357.399 104.234 357.321C104.073 357.243 103.929 357.134 103.81 357.001C103.691 356.868 103.599 356.712 103.541 356.543C103.482 356.374 103.457 356.196 103.467 356.017C103.477 355.839 103.523 355.664 103.6 355.503C103.757 355.178 104.037 354.929 104.378 354.81C104.719 354.691 105.093 354.713 105.418 354.87C105.743 355.027 105.992 355.307 106.111 355.647C106.23 355.988 106.208 356.362 106.051 356.687Z" fill="white"/>
<path d="M114.671 352.119C114.559 352.362 114.377 352.566 114.149 352.705C113.921 352.844 113.656 352.913 113.389 352.901C113.122 352.89 112.864 352.8 112.648 352.642C112.433 352.484 112.269 352.266 112.177 352.015C112.086 351.764 112.071 351.491 112.135 351.231C112.198 350.972 112.338 350.737 112.535 350.557C112.732 350.376 112.979 350.258 113.243 350.218C113.507 350.178 113.778 350.218 114.02 350.331C114.342 350.483 114.592 350.756 114.714 351.091C114.836 351.426 114.82 351.796 114.671 352.119Z" fill="white"/>
<path d="M110.207 364.848C110.093 365.089 109.911 365.291 109.682 365.428C109.454 365.566 109.19 365.632 108.923 365.62C108.657 365.607 108.4 365.516 108.186 365.358C107.971 365.2 107.808 364.982 107.717 364.731C107.627 364.48 107.612 364.208 107.676 363.949C107.739 363.69 107.878 363.456 108.075 363.276C108.272 363.096 108.517 362.978 108.781 362.938C109.045 362.897 109.314 362.935 109.556 363.048C109.717 363.123 109.862 363.229 109.982 363.36C110.102 363.492 110.195 363.645 110.256 363.812C110.316 363.98 110.343 364.157 110.335 364.335C110.326 364.512 110.283 364.687 110.207 364.848Z" fill="white"/>
<path d="M128.393 357.246C128.279 357.487 128.096 357.689 127.868 357.827C127.639 357.964 127.375 358.031 127.109 358.018C126.842 358.006 126.586 357.915 126.371 357.757C126.156 357.598 125.994 357.38 125.903 357.129C125.812 356.879 125.798 356.607 125.861 356.348C125.925 356.089 126.064 355.854 126.261 355.674C126.457 355.494 126.703 355.377 126.967 355.336C127.23 355.295 127.5 355.334 127.742 355.446C127.903 355.521 128.048 355.628 128.168 355.759C128.288 355.89 128.381 356.044 128.441 356.211C128.502 356.378 128.529 356.556 128.52 356.733C128.512 356.911 128.469 357.085 128.393 357.246Z" fill="white"/>
<path d="M124.32 369.848C124.207 370.089 124.024 370.291 123.796 370.428C123.567 370.566 123.303 370.632 123.037 370.62C122.77 370.607 122.514 370.516 122.299 370.358C122.084 370.2 121.921 369.982 121.831 369.731C121.74 369.48 121.725 369.208 121.789 368.949C121.853 368.69 121.992 368.456 122.188 368.276C122.385 368.096 122.631 367.978 122.894 367.938C123.158 367.897 123.428 367.935 123.669 368.048C123.831 368.123 123.975 368.229 124.095 368.36C124.215 368.492 124.308 368.645 124.369 368.812C124.43 368.98 124.456 369.157 124.448 369.335C124.44 369.512 124.396 369.687 124.32 369.848Z" fill="white"/>
<path d="M105.518 376.512C105.404 376.753 105.221 376.955 104.993 377.092C104.764 377.23 104.5 377.296 104.234 377.284C103.967 377.272 103.711 377.18 103.496 377.022C103.281 376.864 103.119 376.646 103.028 376.395C102.937 376.144 102.923 375.872 102.986 375.613C103.05 375.354 103.189 375.12 103.386 374.94C103.582 374.76 103.828 374.642 104.092 374.602C104.355 374.561 104.625 374.599 104.867 374.712C105.028 374.787 105.173 374.893 105.293 375.024C105.413 375.156 105.506 375.309 105.566 375.476C105.627 375.644 105.654 375.821 105.645 375.999C105.637 376.177 105.594 376.351 105.518 376.512Z" fill="white"/>
<path d="M114.186 392.426C114.072 392.667 113.889 392.869 113.661 393.006C113.432 393.144 113.168 393.211 112.902 393.198C112.635 393.186 112.379 393.094 112.164 392.936C111.949 392.778 111.787 392.56 111.696 392.309C111.605 392.058 111.591 391.786 111.654 391.527C111.718 391.268 111.857 391.034 112.054 390.854C112.25 390.674 112.496 390.556 112.76 390.516C113.023 390.475 113.293 390.514 113.535 390.626C113.696 390.701 113.841 390.807 113.961 390.938C114.081 391.07 114.174 391.223 114.234 391.391C114.295 391.558 114.322 391.735 114.313 391.913C114.305 392.091 114.262 392.265 114.186 392.426Z" fill="white"/>
<path d="M109.674 401.551C109.56 401.792 109.378 401.994 109.149 402.131C108.921 402.269 108.656 402.336 108.39 402.323C108.124 402.311 107.867 402.219 107.652 402.061C107.438 401.903 107.275 401.685 107.184 401.434C107.093 401.183 107.079 400.911 107.143 400.652C107.206 400.393 107.345 400.159 107.542 399.979C107.739 399.799 107.984 399.681 108.248 399.641C108.511 399.6 108.781 399.639 109.023 399.751C109.184 399.826 109.329 399.932 109.449 400.063C109.569 400.195 109.662 400.348 109.722 400.516C109.783 400.683 109.81 400.86 109.802 401.038C109.793 401.216 109.75 401.39 109.674 401.551Z" fill="white"/>
<path d="M101.611 386.802C101.536 386.963 101.429 387.108 101.298 387.228C101.167 387.348 101.013 387.441 100.846 387.502C100.679 387.562 100.501 387.589 100.324 387.581C100.146 387.573 99.9718 387.529 99.8109 387.453C99.5698 387.339 99.3677 387.157 99.2302 386.928C99.0928 386.7 99.0261 386.436 99.0386 386.169C99.0511 385.903 99.1422 385.646 99.3004 385.432C99.4586 385.217 99.6769 385.054 99.9276 384.963C100.178 384.873 100.45 384.858 100.709 384.922C100.968 384.986 101.202 385.125 101.383 385.321C101.563 385.518 101.68 385.764 101.721 386.027C101.761 386.291 101.723 386.56 101.611 386.802Z" fill="white"/>
<path d="M88.9067 398.367C88.829 398.528 88.7203 398.672 88.5869 398.791C88.4535 398.91 88.2979 399.001 88.1292 399.06C87.9604 399.119 87.7817 399.144 87.6033 399.134C87.4248 399.123 87.2502 399.078 87.0893 399C86.9283 398.923 86.7843 398.814 86.6654 398.681C86.5464 398.547 86.455 398.392 86.3961 398.223C86.3373 398.054 86.3123 397.875 86.3225 397.697C86.3328 397.519 86.3781 397.344 86.4558 397.183C86.6128 396.858 86.8925 396.609 87.2333 396.49C87.5742 396.371 87.9483 396.393 88.2733 396.55C88.5983 396.707 88.8476 396.986 88.9664 397.327C89.0852 397.668 89.0637 398.042 88.9067 398.367Z" fill="white"/>
<path d="M110.539 384.254C110.425 384.495 110.243 384.697 110.014 384.834C109.786 384.972 109.522 385.039 109.255 385.026C108.989 385.014 108.732 384.923 108.518 384.764C108.303 384.606 108.14 384.388 108.049 384.137C107.959 383.886 107.944 383.614 108.008 383.355C108.072 383.097 108.21 382.862 108.407 382.682C108.604 382.502 108.85 382.384 109.113 382.344C109.377 382.303 109.646 382.342 109.888 382.454C110.049 382.529 110.194 382.635 110.314 382.767C110.434 382.898 110.527 383.051 110.588 383.219C110.648 383.386 110.675 383.563 110.667 383.741C110.658 383.919 110.615 384.093 110.539 384.254Z" fill="white"/>
<path d="M106.028 394.269C105.914 394.511 105.731 394.713 105.503 394.85C105.274 394.988 105.01 395.054 104.744 395.042C104.477 395.029 104.221 394.938 104.006 394.78C103.791 394.622 103.628 394.403 103.538 394.153C103.447 393.902 103.432 393.63 103.496 393.371C103.56 393.112 103.699 392.878 103.895 392.698C104.092 392.518 104.338 392.4 104.601 392.359C104.865 392.319 105.135 392.357 105.376 392.47C105.538 392.545 105.682 392.651 105.802 392.782C105.923 392.913 106.016 393.067 106.076 393.234C106.137 393.401 106.163 393.579 106.155 393.757C106.147 393.934 106.103 394.109 106.028 394.269Z" fill="white"/>
<path d="M101.375 404.207C101.261 404.448 101.079 404.65 100.85 404.788C100.622 404.925 100.358 404.992 100.091 404.979C99.8249 404.967 99.5682 404.876 99.3536 404.718C99.1389 404.559 98.976 404.341 98.8852 404.09C98.7945 403.84 98.7801 403.568 98.8438 403.309C98.9075 403.05 99.0464 402.815 99.2431 402.635C99.4398 402.455 99.6854 402.338 99.949 402.297C100.213 402.256 100.482 402.295 100.724 402.407C100.885 402.482 101.03 402.589 101.15 402.72C101.27 402.851 101.363 403.005 101.424 403.172C101.484 403.339 101.511 403.517 101.503 403.694C101.494 403.872 101.451 404.046 101.375 404.207Z" fill="white"/>
<path d="M105.459 411.724C105.305 412.048 105.03 412.297 104.693 412.419C104.356 412.541 103.985 412.525 103.66 412.375C103.499 412.298 103.355 412.189 103.236 412.056C103.117 411.922 103.025 411.767 102.966 411.598C102.908 411.429 102.883 411.25 102.893 411.072C102.903 410.894 102.948 410.719 103.026 410.558C103.104 410.397 103.213 410.253 103.346 410.134C103.479 410.015 103.635 409.924 103.804 409.865C103.972 409.806 104.151 409.781 104.33 409.791C104.508 409.802 104.683 409.847 104.844 409.925C105.161 410.085 105.403 410.363 105.518 410.699C105.633 411.035 105.612 411.403 105.459 411.724Z" fill="white"/>
<path d="M93.1333 388.953C92.9763 389.278 92.6966 389.527 92.3557 389.646C92.0149 389.765 91.6408 389.743 91.3158 389.586C90.9908 389.429 90.7415 389.15 90.6227 388.809C90.5039 388.468 90.5254 388.094 90.6824 387.769C90.7601 387.608 90.8688 387.464 91.0022 387.345C91.1356 387.226 91.2911 387.135 91.4599 387.076C91.6287 387.017 91.8074 386.992 91.9858 387.002C92.1642 387.012 92.3389 387.058 92.4998 387.135C92.6607 387.213 92.8048 387.322 92.9237 387.455C93.0426 387.589 93.1341 387.744 93.1929 387.913C93.2518 388.082 93.2768 388.26 93.2665 388.439C93.2563 388.617 93.211 388.792 93.1333 388.953Z" fill="white"/>
<path d="M97.1955 396.238C97.0817 396.479 96.899 396.681 96.6705 396.819C96.442 396.956 96.1779 397.023 95.9116 397.011C95.6452 396.998 95.3885 396.907 95.1739 396.749C94.9592 396.591 94.7963 396.372 94.7055 396.121C94.6148 395.871 94.6004 395.599 94.6641 395.34C94.7278 395.081 94.8667 394.847 95.0634 394.667C95.2601 394.487 95.5058 394.369 95.7693 394.328C96.0329 394.288 96.3025 394.326 96.5443 394.439C96.7055 394.514 96.8503 394.62 96.9704 394.751C97.0905 394.882 97.1835 395.036 97.244 395.203C97.3045 395.37 97.3314 395.548 97.323 395.725C97.3147 395.903 97.2714 396.077 97.1955 396.238Z" fill="white"/>
<path d="M113.44 409.863C113.326 410.104 113.143 410.306 112.915 410.444C112.686 410.581 112.422 410.648 112.156 410.636C111.889 410.623 111.633 410.532 111.418 410.374C111.203 410.216 111.04 409.997 110.95 409.747C110.859 409.496 110.845 409.224 110.908 408.965C110.972 408.706 111.111 408.472 111.308 408.292C111.504 408.112 111.75 407.994 112.013 407.953C112.277 407.913 112.547 407.951 112.788 408.064C113.112 408.218 113.362 408.493 113.484 408.83C113.605 409.167 113.59 409.538 113.44 409.863Z" fill="white"/>
<path d="M92.9572 405.98C92.8434 406.222 92.6607 406.424 92.4322 406.561C92.2037 406.699 91.9397 406.765 91.6733 406.753C91.4069 406.74 91.1502 406.649 90.9356 406.491C90.7209 406.333 90.558 406.114 90.4673 405.864C90.3765 405.613 90.3621 405.341 90.4258 405.082C90.4895 404.823 90.6285 404.589 90.8252 404.409C91.0219 404.229 91.2675 404.111 91.531 404.07C91.7946 404.03 92.0642 404.068 92.306 404.181C92.4672 404.256 92.6121 404.362 92.7321 404.493C92.8522 404.624 92.9452 404.778 93.0057 404.945C93.0662 405.112 93.0931 405.29 93.0848 405.468C93.0764 405.645 93.0331 405.82 92.9572 405.98Z" fill="white"/>
<path d="M122.781 390.41C122.668 390.651 122.485 390.853 122.256 390.991C122.028 391.128 121.764 391.195 121.498 391.182C121.231 391.17 120.974 391.079 120.76 390.921C120.545 390.762 120.382 390.544 120.291 390.293C120.201 390.043 120.186 389.771 120.25 389.512C120.314 389.253 120.453 389.019 120.649 388.838C120.846 388.658 121.092 388.541 121.355 388.5C121.619 388.46 121.888 388.498 122.13 388.61C122.291 388.685 122.436 388.792 122.556 388.923C122.676 389.054 122.769 389.208 122.83 389.375C122.89 389.542 122.917 389.72 122.909 389.897C122.901 390.075 122.857 390.249 122.781 390.41Z" fill="white"/>
<path d="M118.281 400.027C118.168 400.268 117.985 400.471 117.756 400.608C117.528 400.745 117.264 400.812 116.998 400.8C116.731 400.787 116.474 400.696 116.26 400.538C116.045 400.38 115.882 400.161 115.791 399.911C115.701 399.66 115.686 399.388 115.75 399.129C115.814 398.87 115.953 398.636 116.149 398.456C116.346 398.276 116.592 398.158 116.855 398.117C117.119 398.077 117.388 398.115 117.63 398.228C117.791 398.303 117.936 398.409 118.056 398.54C118.176 398.671 118.269 398.825 118.33 398.992C118.39 399.159 118.417 399.337 118.409 399.515C118.401 399.692 118.357 399.866 118.281 400.027Z" fill="white"/>
<path d="M119.147 382.504C119.033 382.745 118.85 382.947 118.622 383.084C118.393 383.222 118.129 383.289 117.863 383.276C117.596 383.264 117.34 383.173 117.125 383.014C116.91 382.856 116.747 382.638 116.657 382.387C116.566 382.136 116.552 381.864 116.615 381.605C116.679 381.347 116.818 381.112 117.015 380.932C117.211 380.752 117.457 380.634 117.72 380.594C117.984 380.553 118.254 380.592 118.495 380.704C118.657 380.779 118.802 380.885 118.922 381.017C119.042 381.148 119.135 381.301 119.195 381.469C119.256 381.636 119.283 381.813 119.274 381.991C119.266 382.169 119.223 382.343 119.147 382.504Z" fill="white"/>
<path d="M128.643 379.504C128.529 379.745 128.346 379.947 128.118 380.084C127.889 380.222 127.625 380.289 127.359 380.276C127.092 380.264 126.836 380.173 126.621 380.014C126.407 379.856 126.244 379.638 126.153 379.387C126.062 379.136 126.048 378.864 126.111 378.605C126.175 378.347 126.314 378.112 126.511 377.932C126.707 377.752 126.953 377.634 127.217 377.594C127.48 377.553 127.75 377.592 127.992 377.704C128.153 377.779 128.298 377.885 128.418 378.017C128.538 378.148 128.631 378.301 128.691 378.469C128.752 378.636 128.779 378.813 128.77 378.991C128.762 379.169 128.719 379.343 128.643 379.504Z" fill="white"/>
<path d="M76.2849 404.278C78.9371 417.301 107.874 431.344 109.851 431.285C111.829 431.225 131.033 383.688 131.033 383.688C131.033 383.688 107.625 375.992 97.0878 362.305C97.0878 362.305 75.4561 400.193 76.2849 404.278Z" fill="#455A64"/>
<path d="M299.659 512.196H187.664C180.844 486.148 174.581 463.166 170.591 448.65C168.081 439.522 166.471 433.732 166.163 432.643C166.146 432.578 166.126 432.515 166.104 432.453H282.574L286.126 448.78C287.535 455.387 289.322 463.723 291.383 473.254C291.548 474.083 291.738 474.923 291.915 475.799C294.26 486.716 296.9 499.089 299.659 512.196Z" fill="#455A64"/>
<path d="M204.642 512.199H202.535C196.804 491.084 191.212 469.93 185.757 448.736L185.308 446.949C185.201 446.463 185.923 446.238 186.065 446.724C186.267 447.399 186.468 448.062 186.657 448.736C192.838 469.835 198.781 491.005 204.642 512.199Z" fill="#263238"/>
<path d="M273.505 432.641C272.592 438.176 271.262 443.634 269.527 448.968C268.224 453.207 266.65 457.789 264.874 462.513C264.495 463.591 264.069 464.633 263.69 465.698C258.042 480.084 250.666 494.742 243.041 501.704H242.981C242.088 502.559 241.112 503.324 240.069 503.989L233.58 508.002C233.588 508.034 233.588 508.066 233.58 508.097C233.58 508.488 233.285 509.897 232.917 512.17H123.599C120.805 486.856 126.63 463.176 131.709 448.329C133.487 442.961 135.607 437.713 138.055 432.617L273.505 432.641Z" fill="#455A64"/>
<path d="M260.48 495.534C253.61 499.306 246.535 502.69 239.286 505.669C237.356 506.498 235.426 507.315 233.461 508.108C233.343 508.108 233.224 508.215 233.106 508.25C231.417 508.953 229.723 509.627 228.026 510.275C226.369 510.914 224.723 511.577 223.042 512.193H219.348C221.893 510.914 224.557 509.825 227.15 508.641C230.75 507.062 234.361 505.483 237.984 503.905C239.63 503.194 241.275 502.472 242.909 501.738H242.968C248.616 499.228 254.24 496.718 260.054 494.634C260.634 494.35 261.013 495.226 260.48 495.534Z" fill="#263238"/>
<path d="M233.52 508.191C233.52 509.043 233.449 510.452 233.284 512.193H232.1C232.478 510.559 232.822 509.221 233.153 508.25C233.15 508.214 233.15 508.179 233.153 508.143C233.213 507.989 233.426 507.978 233.473 508.143C233.473 508.143 233.52 508.155 233.52 508.191Z" fill="#263238"/>
<path d="M148.629 439.455C147.149 442.415 145.811 445.375 144.568 448.477C137.027 467.017 134.181 487.133 136.28 507.037C136.481 508.766 136.729 510.483 136.99 512.2H135.096C134.348 507.2 133.913 502.158 133.793 497.104C133.402 480.386 136.659 463.784 143.336 448.453C144.733 445.268 146.284 442.142 147.977 439.1C148.001 439.057 148.032 439.019 148.07 438.988C148.108 438.958 148.152 438.935 148.198 438.921C148.245 438.908 148.294 438.903 148.343 438.908C148.391 438.914 148.438 438.928 148.481 438.952C148.523 438.975 148.561 439.006 148.592 439.044C148.622 439.082 148.645 439.126 148.659 439.172C148.673 439.219 148.677 439.268 148.672 439.317C148.667 439.365 148.652 439.412 148.629 439.455Z" fill="#263238"/>
<path d="M230.774 477.719C230.88 473.504 231.176 469.3 231.389 465.097C231.875 455.175 232.265 445.194 233.189 435.308C233.189 435.226 233.221 435.148 233.279 435.09C233.337 435.032 233.415 435 233.497 435C233.578 435 233.657 435.032 233.714 435.09C233.772 435.148 233.805 435.226 233.805 435.308C233.923 442.98 233.627 450.7 233.473 458.36C233.39 462.196 233.284 466.044 233.177 469.881C232.97 473.544 232.946 477.215 233.106 480.88C233.307 483.651 233.911 489.026 237.522 489.357C240.932 489.677 243.62 486.007 244.472 483.319C246.627 476.476 247.397 469.111 248.095 462.007C248.51 457.804 248.995 440.695 248.77 436.409C248.77 436.137 249.173 436.148 249.197 436.409C249.433 440.742 250.025 445.052 250.167 449.433C250.31 453.814 250.321 458.1 250.049 462.457C249.777 466.601 249.433 470.745 248.806 474.877C248.385 478.633 247.49 482.321 246.142 485.853C244.887 488.765 242.732 491.441 239.464 492.081C239.073 492.147 238.677 492.187 238.28 492.199C238.28 493.087 238.114 493.987 238.055 494.863C237.96 496.26 237.783 497.634 237.593 499.019C237.402 500.378 237.121 501.723 236.753 503.044C236.455 504.382 235.977 505.672 235.332 506.881C235.307 506.918 235.271 506.947 235.229 506.963C235.187 506.979 235.141 506.981 235.098 506.969C235.055 506.957 235.016 506.932 234.988 506.897C234.96 506.862 234.943 506.819 234.941 506.774C234.909 505.444 235.02 504.114 235.273 502.808C235.462 501.458 235.652 500.084 235.924 498.758C236.196 497.432 236.445 496.118 236.717 494.804C236.895 493.928 237.013 493.016 237.179 492.128C236.124 491.942 235.132 491.498 234.291 490.835C233.45 490.171 232.786 489.31 232.36 488.327C230.809 485.048 230.691 481.223 230.774 477.719Z" fill="#263238"/>
<path d="M228.76 287.358C242.886 305.058 298.273 367.87 329.057 373.73C349.789 377.697 416.389 343.799 430.976 331.521C436.896 326.501 403.59 276.808 395.456 278.809C386.647 280.976 338.719 312.837 332.491 312.47C326.263 312.103 277.21 284.528 247.456 272.321C229.577 264.933 220.804 277.4 228.76 287.358Z" fill="#AD6359"/>
<path d="M412.684 343.355C425.495 338.418 464.342 311.174 470.795 304.094C477.248 297.014 494.345 275.335 489.419 269.841C484.494 264.347 479 270.303 479 270.303C479 270.303 485.476 259.114 479.32 254.911C474.406 251.56 466.201 259.528 466.201 259.528C466.201 259.528 472.654 246.895 466.012 243.52C459.961 240.442 453.295 251.264 453.295 251.264C453.295 251.264 457.617 240.146 451.223 238.311C443.527 236.085 436.033 255.325 428.325 262.607C426.572 264.252 374.867 289.625 374.867 289.625L412.684 343.355Z" fill="#AD6359"/>
<path d="M453.01 250.706C445.906 264.547 442.591 270.065 430.514 278.921C430.277 279.087 430.514 279.478 430.751 279.324C443.325 271.722 447.753 265.459 453.673 250.908C453.993 250.233 453.342 250.067 453.01 250.706Z" fill="#263238"/>
<path d="M466.058 259.53C459.013 273.738 453.626 279.078 441.703 289.272C441.525 289.414 441.703 289.722 441.94 289.592C454.478 280.558 461.393 274.745 466.567 259.649C466.804 258.974 466.378 258.891 466.058 259.53Z" fill="#263238"/>
<path d="M478.408 270.816C470.594 284.053 465.135 290.565 452.277 298.971C452.211 299.009 452.163 299.071 452.143 299.144C452.123 299.218 452.133 299.296 452.171 299.362C452.208 299.428 452.271 299.476 452.344 299.496C452.417 299.516 452.495 299.506 452.561 299.468C466.497 292.163 473.388 284.076 478.787 271.052C479.154 270.212 478.893 269.951 478.408 270.816Z" fill="#263238"/>
<path d="M529.994 309.897C496.001 319.819 462.506 329.752 429.946 339.674C410.446 295.866 407.568 252.058 394.213 208.25C428.253 198.317 461.701 188.395 494.391 178.461C513.856 222.257 516.674 266.077 529.994 309.897Z" fill="white"/>
<path d="M529.994 309.899C513.047 314.935 496.258 319.963 479.626 324.983C462.995 330.003 446.486 335.019 430.1 340.031L429.768 340.138L429.602 339.783C410.019 295.975 407.106 252.167 393.644 208.359C393.585 208.169 393.538 207.98 393.479 207.79L394.035 207.625C428.075 197.75 461.523 187.876 494.213 178.025L494.604 177.906L494.782 178.309C504.49 200.272 510.02 222.235 514.791 244.198C519.563 266.162 523.434 288.006 529.994 309.899ZM529.994 309.899C523.233 287.983 519.089 266.091 514.187 244.139C509.286 222.188 503.744 200.414 494.059 178.557L494.616 178.842C461.973 188.823 428.478 198.816 394.438 208.797L394.828 208.063C408.125 251.871 410.931 295.738 430.348 339.57L429.863 339.321C446.155 334.411 462.648 329.502 479.342 324.592C496.037 319.682 512.92 314.785 529.994 309.899Z" fill="#263238"/>
<path d="M410.305 227.326C429.509 221.801 448.599 216.275 467.575 210.75C467.906 211.875 468.238 213 468.557 214.124C449.542 219.65 430.397 225.175 411.122 230.7C410.849 229.623 410.577 228.51 410.305 227.326Z" fill="#DBDBDB"/>
<path d="M412.34 235.896C431.639 230.371 450.851 224.846 469.977 219.32L470.865 222.695C451.716 228.22 432.464 233.745 413.109 239.271C412.861 238.146 412.6 237.021 412.34 235.896Z" fill="#DBDBDB"/>
<path d="M414.258 244.42C433.628 238.894 452.931 233.369 472.167 227.844C472.44 229.028 472.724 230.093 472.984 231.218C453.732 236.743 434.394 242.269 414.968 247.794C414.755 246.669 414.506 245.545 414.258 244.42Z" fill="#DBDBDB"/>
<path d="M416.105 252.94C444.521 244.857 472.851 236.77 501.093 228.68L501.91 232.066C473.683 240.141 445.256 248.228 416.828 256.314C416.579 255.189 416.342 254.065 416.105 252.94Z" fill="#DBDBDB"/>
<path d="M417.953 261.463C446.369 253.373 474.765 245.286 503.142 237.203C503.402 238.328 503.663 239.453 503.912 240.578C475.567 248.668 447.151 256.755 418.664 264.838C418.391 263.713 418.154 262.588 417.953 261.463Z" fill="#DBDBDB"/>
<path d="M419.74 269.951L504.988 245.703C505.237 246.887 505.486 247.953 505.722 249.078C477.306 257.164 448.89 265.239 420.474 273.326C420.226 272.225 419.989 271.135 419.74 269.951Z" fill="#DBDBDB"/>
<path d="M421.623 278.502C449.952 270.412 478.368 262.325 506.871 254.242C507.12 255.426 507.356 256.492 507.593 257.617C479.177 265.699 450.785 273.786 422.416 281.877C422.132 280.752 421.872 279.627 421.623 278.502Z" fill="#DBDBDB"/>
<path d="M423.6 287.014C451.814 278.927 480.23 270.852 508.658 262.766C508.907 263.89 509.144 265.015 509.38 266.14C480.964 274.231 452.647 282.313 424.428 290.388C424.144 289.264 423.872 288.139 423.6 287.014Z" fill="#DBDBDB"/>
<path d="M425.73 295.534C453.791 287.443 482.045 279.356 510.493 271.273C510.742 272.398 510.978 273.523 511.227 274.648C482.858 282.739 454.66 290.825 426.63 298.908C426.322 297.783 426.026 296.658 425.73 295.534Z" fill="#DBDBDB"/>
<path d="M428.053 304.053C455.9 295.978 484.013 287.895 512.389 279.805C512.65 280.989 512.898 282.054 513.171 283.179C484.897 291.266 456.788 299.353 429.035 307.439C428.704 306.303 428.372 305.178 428.053 304.053Z" fill="#DBDBDB"/>
<path d="M430.598 312.573C458.224 304.49 486.155 296.403 514.389 288.312C514.662 289.497 514.934 290.562 515.218 291.687C487.086 299.778 459.243 307.864 431.687 315.947C431.32 314.822 430.977 313.757 430.598 312.573Z" fill="#DBDBDB"/>
<path d="M433.428 321.096C460.754 313.013 488.46 304.927 516.545 296.836C516.841 297.961 517.137 299.086 517.444 300.21C489.502 308.293 461.899 316.38 434.635 324.47L433.428 321.096Z" fill="#DBDBDB"/>
<path d="M477.355 228.388C476.088 219.188 474.537 209.989 472.465 200.789C478.941 207.384 485.134 213.979 491.16 220.574L489.384 222.196C485.169 217.555 480.871 212.913 476.443 208.272C477.734 214.843 478.811 221.403 479.699 227.974L477.355 228.388Z" fill="#F7B905"/>
<path d="M475.661 223.605L474.287 221.722C478.502 218.565 482.678 215.407 486.814 212.25L488.235 214.133C484.091 217.306 479.899 220.463 475.661 223.605Z" fill="#F7B905"/>
<path d="M471.967 197.18C470.019 198.622 468.292 200.342 466.84 202.283C463.979 206.216 462.482 210.977 462.578 215.84C462.598 218.198 463.115 220.526 464.094 222.671C465.101 224.741 466.566 226.555 468.377 227.977C470.188 229.398 472.298 230.39 474.548 230.876C479.071 231.764 483.914 230.142 487.963 227.466C492.109 224.989 495.252 221.134 496.843 216.574C497.59 214.337 497.823 211.96 497.524 209.621C497.224 207.282 496.401 205.041 495.114 203.064C493.697 201.11 491.866 199.493 489.751 198.328C487.638 197.107 485.289 196.352 482.86 196.114C480.448 195.87 478.012 196.207 475.756 197.097C473.517 198.019 471.455 199.321 469.658 200.945C470.489 200.049 471.383 199.214 472.334 198.447C473.324 197.71 474.383 197.072 475.496 196.54C477.783 195.429 480.307 194.893 482.848 194.977C485.52 195.108 488.132 195.81 490.509 197.035C492.886 198.261 494.974 199.982 496.63 202.081C498.217 204.251 499.238 206.782 499.602 209.446C499.976 212.075 499.77 214.755 498.998 217.296C497.272 222.4 493.795 226.729 489.183 229.515C486.953 230.985 484.508 232.099 481.936 232.818C479.356 233.552 476.638 233.669 474.004 233.161C471.432 232.619 469.038 231.438 467.042 229.728C465.065 228.047 463.481 225.954 462.4 223.595C460.502 218.708 460.532 213.282 462.483 208.416C464.268 203.697 467.615 199.732 471.967 197.18Z" fill="#F7B905"/>
<path d="M484.955 206.013C483.597 204.15 482.212 202.291 480.799 200.436L482.658 199.062C484.079 200.917 485.476 202.776 486.849 204.639L484.955 206.013Z" fill="#F7B905"/>
<path d="M481.889 205.434L480.48 203.492L485.808 199.656C486.294 200.307 486.768 200.959 487.253 201.598L481.889 205.434Z" fill="#F7B905"/>
<path d="M374.867 289.643C374.867 289.643 387.453 276.749 393.113 270.344C398.772 263.938 412.293 243.609 419.634 244.094C427.922 244.639 421.931 266.058 411.903 277.566C411.903 277.566 425.223 298.807 416.118 310.327C414.14 312.814 399.79 320.699 396.227 319.965L374.867 289.643Z" fill="#AD6359"/>
<path d="M411.298 279.104C416.78 287.179 420.593 299.481 416.662 308.396C416.643 308.447 416.643 308.502 416.662 308.553C416.681 308.603 416.718 308.645 416.765 308.671C416.812 308.697 416.867 308.705 416.92 308.694C416.973 308.682 417.02 308.652 417.052 308.609C422.558 299.623 418.236 285.344 412.956 278.417C411.926 277.056 409.877 277.056 411.298 279.104Z" fill="#263238"/>
<path d="M374.867 289.641L412.684 343.359C412.795 346.77 411.86 350.133 410.004 352.996C408.148 355.86 405.46 358.087 402.301 359.378C391.017 364.316 344.344 381.152 325.862 374.912C307.379 368.673 254.656 323.231 231.911 293.027C209.167 262.823 242.78 268.826 249.186 271.715C255.591 274.604 330.787 310.041 333.463 309.982C336.139 309.923 353.591 296.65 361.879 292.53C370.167 288.409 374.867 289.641 374.867 289.641Z" fill="#F7B905"/>
<path opacity="0.1" d="M352.832 374.494C342.176 376.448 332.314 377.087 325.885 374.909C307.391 368.657 254.667 323.239 231.922 293.011C230.478 291.105 229.27 289.329 228.252 287.719L352.832 374.494Z" fill="black"/>
<path d="M397.956 354.454C394.486 350.203 391.598 345.479 388.578 340.932C385.559 336.386 382.658 331.958 379.734 327.435C373.814 318.33 367.693 309.284 362.4 299.836C362.383 299.793 362.382 299.745 362.397 299.701C362.411 299.657 362.44 299.619 362.479 299.594C362.518 299.569 362.564 299.559 362.61 299.564C362.656 299.569 362.699 299.59 362.732 299.623C369.563 308.23 375.519 317.537 381.51 326.689C384.517 331.275 387.457 335.901 390.331 340.565C393.248 344.987 395.916 349.569 398.323 354.288C398.429 354.513 398.098 354.631 397.956 354.454Z" fill="#263238"/>
<g opacity="0.1">
<path d="M385.83 365.584L381.556 367.04C381.332 365.471 381.225 363.888 381.236 362.304C381.236 359.308 381.473 356.384 381.438 353.531C381.448 350.676 381.17 347.828 380.609 345.029C380.037 342.286 379.076 339.639 377.755 337.168C377.436 336.552 377.069 335.984 376.725 335.392C376.382 334.8 375.991 334.302 375.601 333.758C374.76 332.68 373.884 331.567 372.972 330.478L367.526 323.86C365.679 321.634 363.855 319.396 362.056 317.111C360.256 314.826 358.504 312.458 356.882 310.007C355.198 307.473 353.744 304.795 352.536 302.003C352.121 300.982 351.765 299.939 351.471 298.877C352.998 297.871 354.502 296.9 355.923 296C356.391 297.277 356.933 298.526 357.545 299.741C358.852 302.135 360.295 304.451 361.866 306.68C365.039 311.297 368.378 315.95 371.729 320.651C373.398 323.019 375.115 325.387 376.678 327.838C377.46 329.081 378.241 330.336 378.939 331.698C379.283 332.384 379.626 333.059 379.934 333.817C380.242 334.575 380.467 335.261 380.68 335.996C382.432 341.821 382.693 347.693 383.368 353.436C383.825 357.55 384.649 361.616 385.83 365.584Z" fill="black"/>
<path d="M370.888 370.215C369.704 370.547 368.591 370.867 367.419 371.174C365.998 366.273 365.915 361.442 365.809 356.67V349.282C365.809 348.098 365.809 346.855 365.714 345.659C365.688 344.5 365.573 343.344 365.371 342.202C365.329 341.943 365.261 341.69 365.169 341.444L364.873 340.639L364.518 339.858C364.388 339.597 364.234 339.349 364.104 339.088C363.502 338.067 362.787 337.118 361.973 336.258C360.271 334.529 358.338 333.043 356.23 331.842C355.176 331.203 354.087 330.658 352.986 330.078L349.659 328.385C347.278 327.275 345.128 325.725 343.325 323.814C342.878 323.28 342.481 322.705 342.141 322.098C341.963 321.79 341.809 321.458 341.655 321.139L341.288 320.191C340.862 318.942 340.541 317.659 340.329 316.355C339.927 313.835 339.776 311.281 339.879 308.73C339.879 307.984 339.95 307.238 340.009 306.493L342.377 304.93C342.377 306.197 342.377 307.452 342.484 308.707C342.581 311.091 342.85 313.465 343.289 315.811C343.518 316.936 343.827 318.044 344.213 319.126L344.52 319.907C344.639 320.132 344.722 320.369 344.852 320.606C345.099 321.072 345.38 321.519 345.693 321.944C347.14 323.766 348.829 325.384 350.713 326.751C352.643 328.231 354.738 329.569 356.81 330.93C358.951 332.233 360.99 333.698 362.908 335.311C363.892 336.149 364.792 337.081 365.596 338.094C366 338.613 366.376 339.155 366.72 339.716L367.206 340.58C367.366 340.898 367.504 341.226 367.62 341.563C368.032 342.81 368.322 344.095 368.485 345.399C368.686 346.654 368.792 347.909 368.899 349.152C369.1 351.638 369.219 354.101 369.384 356.54C369.55 358.979 369.728 361.418 369.965 363.81C370.127 365.964 370.436 368.104 370.888 370.215Z" fill="black"/>
</g>
<path d="M126.05 456.143C126.169 456.297 287.749 448.743 288.803 447.749C289.288 447.287 291.384 438.087 288.909 425.312C281.486 387.01 259.238 308.771 239.619 275.666C234.718 267.378 212.624 255.195 196.593 270.847C164.092 302.578 138.577 383.327 128.525 427.68C123.599 449.359 125.387 455.22 126.05 456.143Z" fill="#F7B905"/>
<g opacity="0.1">
<path d="M288.187 421.657C287.701 421.657 287.216 421.657 286.742 421.728C282.149 422.167 277.586 422.883 273.079 423.871C263.784 425.765 254.324 427.897 244.793 430.016C240.057 431.07 235.25 432.183 230.336 432.988C227.874 433.378 225.399 433.769 222.83 433.959C221.528 434.041 220.249 434.136 218.852 434.112C217.455 434.089 216.271 433.982 214.98 433.828C204.738 432.727 195.42 429.258 186.008 426.523C176.595 423.788 166.886 421.917 158.243 421.953C156.112 421.953 153.815 422.13 151.506 422.344C149.197 422.557 146.888 422.9 144.556 423.243C139.903 423.989 135.202 424.925 130.513 425.943L128.82 426.322C129.389 423.835 130.004 421.231 130.679 418.543C134.743 417.2 138.877 416.082 143.064 415.192C145.527 414.655 148.029 414.229 150.57 413.913C151.849 413.76 153.128 413.629 154.418 413.558C155.759 413.469 157.104 413.469 158.444 413.558C163.675 413.913 168.8 415.205 173.576 417.371C178.24 419.313 182.598 421.609 187.097 423.468C191.54 425.37 196.166 426.814 200.902 427.778C205.559 428.697 210.323 428.948 215.051 428.524C216.235 428.441 217.419 428.264 218.496 428.11C219.574 427.956 220.663 427.672 221.776 427.411C224.026 426.807 226.323 426.227 228.608 425.493L242.544 421.361C247.208 419.952 251.921 418.578 256.669 417.288C261.416 415.997 266.247 414.849 271.184 413.937C276.131 412.999 281.151 412.5 286.186 412.445C286.92 415.666 287.583 418.756 288.187 421.657Z" fill="black"/>
<path d="M281.142 391.62C277.852 390.45 274.49 389.493 271.078 388.754C269.173 388.36 267.242 388.106 265.3 387.997H263.891C263.453 387.997 263.026 387.997 262.588 388.056C261.696 388.142 260.81 388.284 259.936 388.482C256.143 389.538 252.511 391.104 249.138 393.135C245.586 395.172 242.034 397.54 238.601 399.896C235.153 402.368 231.524 404.577 227.743 406.502C225.788 407.479 223.747 408.272 221.646 408.87C220.57 409.159 219.479 409.389 218.378 409.557L216.673 409.664C216.07 409.705 215.464 409.705 214.861 409.664C212.645 409.487 210.452 409.09 208.314 408.48C206.23 407.959 204.205 407.296 202.204 406.645C198.191 405.319 194.272 403.886 190.364 402.524C186.457 401.163 182.538 399.837 178.655 398.629C174.88 397.391 171.017 396.441 167.099 395.787C165.268 395.511 163.41 395.472 161.57 395.669C159.632 395.889 157.713 396.249 155.827 396.746C151.904 397.793 148.052 399.09 144.295 400.63C140.909 402.003 137.538 403.471 134.184 405.034C134.551 403.673 134.93 402.299 135.368 400.902C137.736 399.458 140.139 398.092 142.578 396.806C146.385 394.788 150.344 393.069 154.418 391.667C156.53 390.967 158.691 390.425 160.883 390.045C163.177 389.645 165.515 389.558 167.833 389.784C176.831 390.684 184.752 393.857 192.543 396.971L204.099 401.707C206.005 402.501 207.923 403.247 209.818 403.969C211.639 404.686 213.511 405.268 215.418 405.709C215.855 405.801 216.298 405.865 216.744 405.899L218.188 405.958H219.645C220.142 405.958 220.627 405.863 221.113 405.816C223.099 405.555 225.049 405.07 226.926 404.371C230.734 402.847 234.318 400.816 237.582 398.333C239.252 397.149 240.838 395.764 242.46 394.449L247.291 390.365C250.571 387.689 254.099 384.966 258.598 383.521C259.73 383.145 260.896 382.883 262.079 382.74C262.683 382.657 263.263 382.645 263.903 382.609H265.619C267.847 382.767 270.058 383.116 272.226 383.651C274.782 384.259 277.291 385.051 279.733 386.019L281.142 391.62Z" fill="black"/>
</g>
<path d="M179.625 274.686C126.878 297.052 85.9235 316.529 91.8672 336.799C94.2352 344.756 107.97 366.221 125.659 366.198C139.559 366.198 164.34 343.891 192.578 304.878C207.201 284.691 212.931 260.549 179.625 274.686Z" fill="#F7B905"/>
<path d="M188.979 315.578C186.73 317.437 184.492 319.343 182.302 321.285L183.711 319.651C187.487 315.175 191.217 310.664 194.947 306.153C195.018 306.058 194.864 305.94 194.781 306.035C187.677 313.589 180.573 321.072 173.386 328.602C166.199 336.132 147.456 355.206 142.898 358.948C142.803 359.031 142.898 359.185 143.016 359.114C147.137 355.893 158.704 346.208 162.399 342.597C167.979 337.135 173.343 331.499 178.489 325.689C182.244 322.594 185.829 319.298 189.228 315.815C189.358 315.684 189.133 315.448 188.979 315.578Z" fill="#263238"/>
<path d="M110.729 353.932C87.6645 344.46 72.7225 274.497 67.0629 227.41C65.9855 218.447 136.836 209.816 136.919 219.465C137.203 274.545 135.995 364.28 110.729 353.932Z" fill="#AD6359"/>
<path d="M58.1587 190.704C58.5731 205.729 71.4432 243.345 77.375 249.49C83.3069 255.635 128.287 234.098 130.762 225.81C133.236 217.522 135.367 168.244 125.457 156.546C115.547 144.848 57.7206 175.146 58.1587 190.704Z" fill="#AD6359"/>
<path d="M137.096 177.598C133.165 184.524 127.257 175.929 127.257 175.929C127.257 175.929 132.786 190.35 125.978 195.926C119.395 201.278 112.611 190.646 112.125 189.888C112.41 190.658 117.146 204.096 109.757 208.939C102.038 214.018 97.0649 202.178 96.7334 201.408C96.7334 202.225 97.1714 212.905 90.6831 215.344C79.5417 219.535 77.7894 192.232 70.2946 186.17C70.2946 186.17 58.5849 191.617 58.1705 191.877C58.1705 191.877 55.9801 172.033 64.7062 162.372C65.9523 160.945 67.6495 159.989 69.5151 159.661C71.3807 159.334 73.3022 159.655 74.9596 160.572C74.9596 160.572 73.3375 152.284 79.0562 148.247C81.9926 146.175 87.9244 149.052 87.9244 149.052C87.9244 149.052 86.8943 142.362 92.1986 139.083C96.4374 136.454 101.671 139.746 101.671 139.746C101.671 139.746 103.66 132.867 108.858 131.576C119.36 128.936 145.49 162.727 137.096 177.598Z" fill="#AD6359"/>
<path d="M102.606 140.099C102.593 140.077 102.588 140.052 102.591 140.027C102.593 140.002 102.604 139.978 102.621 139.96C102.639 139.941 102.661 139.929 102.686 139.924C102.711 139.919 102.737 139.923 102.76 139.934C114.067 148.944 123.728 162.311 127.624 176.318C127.754 176.78 127.055 177.194 126.818 176.709C120.046 163.033 112.942 151.43 102.606 140.099Z" fill="#263238"/>
<path d="M87.8288 148.795C87.7222 148.677 87.9235 148.487 88.0656 148.594C99.6688 157.947 110.135 173.304 112.716 190.034C112.811 190.602 112.314 191.218 112.16 190.555C109.603 179.544 97.1824 158.954 87.8288 148.795Z" fill="#263238"/>
<path d="M96.4963 202.604C93.3942 186.703 85.5088 173.395 75.4448 160.891C75.3145 160.726 75.5632 160.56 75.7053 160.667C82.3001 165.403 87.8768 174.081 91.6537 181.173C95.2883 187.675 97.1616 195.013 97.0883 202.462C97.0883 202.793 96.5555 202.947 96.4963 202.604Z" fill="#263238"/>
<path d="M127.257 175.891C128.061 178.752 128.6 181.681 128.867 184.64C129.232 187.51 128.824 190.424 127.683 193.082C127.108 194.277 126.107 195.214 124.877 195.711C123.632 196.198 122.283 196.357 120.958 196.173C119.653 195.886 118.424 195.326 117.35 194.53C116.277 193.734 115.384 192.72 114.73 191.555L111.297 186.002L112.599 192.407C113.196 195.248 113.328 198.167 112.99 201.051C112.623 203.857 111.51 206.556 109.367 207.977C108.376 208.738 107.153 209.137 105.904 209.106C104.655 209.076 103.453 208.619 102.5 207.811C100.402 205.957 98.8126 203.597 97.8821 200.956L95.0524 193.757L95.3602 201.453C95.4567 203.595 95.2736 205.74 94.8156 207.835C94.4623 209.836 93.5275 211.689 92.1279 213.163C91.4679 213.798 90.6441 214.236 89.749 214.428C88.8539 214.621 87.9228 214.56 87.0604 214.252C85.2379 213.276 83.7308 211.802 82.7151 210.002C80.4846 206.132 78.5606 202.095 76.9608 197.925C76.0728 195.841 75.173 193.757 74.1784 191.709C73.2906 189.597 71.9673 187.697 70.2949 186.132C71.762 187.842 72.8838 189.821 73.5983 191.958C74.4271 194.053 75.1612 196.196 75.8952 198.339C77.263 202.713 79.043 206.947 81.2114 210.984C82.3509 213.193 84.1073 215.023 86.2671 216.253C87.515 216.79 88.8924 216.95 90.2301 216.714C91.5679 216.479 92.8077 215.857 93.7973 214.927C95.6083 213.158 96.8458 210.885 97.3493 208.403C97.894 206.076 98.1328 203.688 98.0597 201.299L95.5496 201.797C96.6007 204.94 98.4583 207.753 100.937 209.954C102.343 211.139 104.118 211.796 105.957 211.813C107.761 211.768 109.51 211.182 110.977 210.132C113.973 208.048 115.204 204.508 115.559 201.37C115.891 198.203 115.695 195.002 114.979 191.898L112.836 192.763C113.703 194.177 114.868 195.384 116.251 196.3C117.634 197.217 119.2 197.82 120.84 198.067C122.49 198.216 124.15 197.935 125.659 197.25C127.198 196.525 128.42 195.261 129.092 193.698C130.395 190.679 130.122 187.506 129.708 184.546C129.218 181.578 128.396 178.675 127.257 175.891Z" fill="#263238"/>
<path d="M132.158 228.982C132.158 228.982 168.697 162.086 134.526 161.198C126.238 160.985 93.3112 174.34 95.6911 181.006C98.7695 189.626 113.451 186.985 122.497 183.86C122.497 183.86 111.687 202.898 122.698 214.383C126.801 218.564 130.018 223.529 132.158 228.982Z" fill="#AD6359"/>
<path d="M136.894 161.166C133.64 161.039 130.385 161.39 127.233 162.208C124.058 162.937 120.937 163.882 117.891 165.038C111.744 167.251 105.801 169.996 100.131 173.243C98.6325 174.106 97.2616 175.174 96.0583 176.416C95.3726 177.139 94.8551 178.004 94.5428 178.95C94.3661 179.472 94.282 180.021 94.2941 180.572C94.3092 181.113 94.4091 181.648 94.5901 182.158C95.2681 183.992 96.5723 185.527 98.2724 186.492C99.8544 187.325 101.569 187.878 103.34 188.126C106.695 188.529 110.095 188.357 113.392 187.617C116.611 186.953 119.776 186.055 122.864 184.929L121.526 183.283C120.374 185.502 119.434 187.825 118.72 190.221C117.988 192.589 117.5 195.024 117.264 197.491C117.057 199.967 117.209 202.459 117.714 204.891C118.221 207.296 119.182 209.582 120.543 211.628C119.482 209.465 118.79 207.14 118.495 204.749C118.237 202.383 118.301 199.994 118.685 197.645C119.044 195.306 119.639 193.009 120.461 190.79C121.265 188.579 122.272 186.446 123.468 184.42L124.972 181.945L122.13 182.786C119.117 183.753 116.044 184.52 112.93 185.083C109.903 185.698 106.797 185.822 103.731 185.45C100.853 185.012 97.8935 183.662 97.0884 181.306C96.1885 179.293 98.9236 177.032 101.469 175.386C104.147 173.691 106.913 172.142 109.757 170.745C112.611 169.276 115.488 167.856 118.424 166.589C124.415 164.185 130.442 161.675 136.894 161.166Z" fill="#263238"/>
<path d="M139.712 233.07L66.0316 249.173C66.0316 249.173 61.1772 263.144 65.4633 277.648C73.5974 305.164 97.8575 364.234 117.429 362.896C138.623 361.416 143.773 287.582 143.477 251.422C143.264 239.168 139.712 233.07 139.712 233.07Z" fill="#F7B905"/>
<g opacity="0.1">
<path d="M143.394 261.805C143.394 263.356 143.394 264.954 143.288 266.541C141.512 267.429 139.736 268.269 137.817 268.992C136.432 269.536 135.011 270.033 133.567 270.46C132.833 270.673 132.099 270.886 131.353 271.052C130.572 271.236 129.782 271.375 128.985 271.466C125.898 271.763 122.782 271.507 119.785 270.708C116.884 270.033 114.114 269.11 111.308 268.471C108.537 267.79 105.705 267.393 102.854 267.287C100.061 267.206 97.2706 267.521 94.5659 268.222C93.9029 268.388 93.228 268.601 92.6005 268.802C91.973 269.003 91.4165 269.264 90.7535 269.524C89.5103 270.093 88.2315 270.708 86.9528 271.312L79.245 275.077C76.6639 276.344 74.0472 277.611 71.4069 278.819C69.8085 279.577 68.1746 280.275 66.517 280.95C66.1499 279.766 65.8066 278.665 65.4869 277.587C65.2383 276.77 65.0251 275.953 64.8594 275.137C68.8968 273.55 72.9816 271.892 77.0783 270.223C79.7659 269.157 82.4299 268.033 85.2242 267.085C86.6213 266.624 88.0184 266.15 89.4984 265.795C90.2443 265.617 90.9903 265.44 91.8664 265.321C92.7426 265.203 93.3819 265.144 94.1397 265.108C100.225 264.753 105.98 265.866 111.734 266.541C117.252 267.312 122.851 267.312 128.369 266.541C129.553 266.328 130.927 266.008 132.253 265.653C133.579 265.297 134.893 264.883 136.219 264.469C138.528 263.664 140.979 262.764 143.394 261.805Z" fill="black"/>
<path d="M142.991 274.688C142.991 275.54 142.92 276.392 142.873 277.257C141.902 278.074 140.919 278.867 139.901 279.625C137.884 281.164 135.755 282.549 133.531 283.769C132.386 284.377 131.199 284.903 129.979 285.344C128.679 285.794 127.326 286.072 125.953 286.172C120.614 286.516 115.7 285.438 110.846 284.384L103.647 282.727C102.463 282.455 101.279 282.206 100.095 281.969C98.9631 281.729 97.8156 281.571 96.6612 281.496C96.4011 281.478 96.14 281.478 95.8798 281.496L95.0273 281.602L94.1748 281.768C93.9025 281.768 93.6184 281.922 93.3342 281.993C92.1627 282.357 91.0381 282.858 89.9835 283.485C87.9024 284.735 86.0056 286.269 84.3476 288.043C83.4833 288.919 82.69 289.855 81.8731 290.778L79.5051 293.632C77.8756 295.692 75.8659 297.42 73.5851 298.723C73.3456 298.856 73.0962 298.971 72.8392 299.066C72.4721 298.107 72.1169 297.16 71.7617 296.213C71.9393 296.142 72.1288 296.082 72.3064 296C74.4127 295.013 76.3761 293.746 78.1435 292.234C80.0379 290.695 81.8257 288.978 83.6254 287.273C85.3959 285.493 87.2998 283.85 89.3204 282.36C90.3615 281.602 91.4715 280.944 92.6356 280.394C93.2395 280.122 93.8196 279.897 94.4827 279.684L95.4417 279.412C95.7732 279.341 96.164 279.27 96.4955 279.234C97.8028 279.109 99.119 279.109 100.426 279.234C101.693 279.341 102.936 279.518 104.168 279.708C106.631 280.098 109.058 280.548 111.473 280.963C113.888 281.377 116.292 281.768 118.672 282.088C120.991 282.442 123.335 282.621 125.681 282.62C126.778 282.601 127.868 282.441 128.925 282.147C130.03 281.831 131.11 281.435 132.158 280.963C134.345 279.975 136.465 278.843 138.504 277.576C140.019 276.685 141.515 275.722 142.991 274.688Z" fill="black"/>
</g>
<path d="M138.802 252.899C102.358 263.129 76.0497 267.877 70.923 268.67C70.8947 268.67 70.8676 268.659 70.8476 268.639C70.8276 268.619 70.8164 268.592 70.8164 268.563C70.8164 268.535 70.8276 268.508 70.8476 268.488C70.8676 268.468 70.8947 268.457 70.923 268.457C96.2487 260.69 136.315 252.662 138.778 252.461C138.828 252.47 138.874 252.495 138.908 252.533C138.942 252.571 138.962 252.62 138.965 252.671C138.967 252.721 138.953 252.772 138.923 252.813C138.894 252.855 138.851 252.885 138.802 252.899Z" fill="#263238"/>
<path d="M142.388 296.708C141.524 303.611 139.559 314.562 137.972 321.335C137.866 321.761 137.759 322.187 137.664 322.614C138.114 325.043 138.34 327.508 138.339 329.978C138.339 332.867 138.09 335.721 137.794 338.586C137.794 338.704 137.593 338.692 137.605 338.586C137.795 335.735 137.771 332.873 137.534 330.026C137.404 328.332 137.262 326.627 137.12 324.922C135.569 331.387 133.935 337.852 131.922 344.186C131.922 344.305 131.709 344.186 131.744 344.115C133.26 337.236 134.882 330.369 136.149 323.442C137.416 316.516 140.316 300.26 141.524 293.381C142.483 287.922 142.661 294.541 142.388 296.708Z" fill="#263238"/>
<path d="M209.568 267.95C210.433 270.472 224.392 286.042 236.137 284.337C239.974 283.769 237.831 262.753 237.831 262.753L238.032 261.166L240.779 238.93L209.722 223.219C209.722 223.219 209.201 266.873 209.568 267.95Z" fill="#AD6359"/>
<path d="M240.754 238.942L237.984 261.154L237.794 262.753C237.794 262.753 238.173 266.565 238.327 270.969C222.012 270.153 213.463 258.786 209.438 250.759C209.509 238.149 209.686 223.219 209.686 223.219L240.754 238.942Z" fill="#263238"/>
<path d="M275.387 201.042C286.73 247.668 260.078 259.721 250.014 262.16C240.886 264.362 209.522 270.72 193.431 225.515C177.34 180.31 195.432 160.301 216.045 154.144C236.659 147.987 264.033 154.404 275.387 201.042Z" fill="#AD6359"/>
<path d="M261.996 202.379C260.89 202.395 259.783 202.351 258.681 202.249C257.51 202.369 256.332 202.099 255.33 201.479C255.053 201.222 254.869 200.881 254.806 200.508C254.744 200.135 254.808 199.752 254.987 199.419C255.434 198.812 256.035 198.336 256.729 198.043C257.423 197.749 258.183 197.648 258.93 197.749C260.473 197.708 261.976 198.244 263.145 199.253C263.397 199.499 263.573 199.812 263.651 200.156C263.729 200.499 263.706 200.858 263.585 201.188C263.463 201.519 263.248 201.807 262.967 202.019C262.685 202.23 262.348 202.355 261.996 202.379Z" fill="#263238"/>
<path d="M228.82 209.479C229.869 209.137 230.901 208.742 231.91 208.295C233.053 208.02 234.073 207.375 234.811 206.46C234.991 206.126 235.054 205.742 234.989 205.369C234.925 204.995 234.737 204.654 234.456 204.4C233.833 203.977 233.107 203.728 232.356 203.68C231.604 203.633 230.853 203.787 230.181 204.128C228.712 204.603 227.471 205.607 226.7 206.945C226.554 207.26 226.5 207.609 226.545 207.953C226.59 208.297 226.732 208.621 226.954 208.887C227.177 209.153 227.47 209.35 227.801 209.455C228.131 209.56 228.485 209.568 228.82 209.479Z" fill="#263238"/>
<path d="M242.862 241.688C243.727 242.363 244.615 243.322 245.799 243.298C247.006 243.148 248.168 242.744 249.209 242.114C249.23 242.106 249.254 242.103 249.276 242.108C249.299 242.113 249.32 242.124 249.336 242.14C249.353 242.157 249.364 242.178 249.369 242.2C249.373 242.223 249.371 242.247 249.362 242.268C248.967 242.956 248.393 243.524 247.701 243.912C247.009 244.299 246.225 244.492 245.432 244.47C244.75 244.372 244.113 244.073 243.603 243.612C243.092 243.15 242.731 242.546 242.566 241.877C242.495 241.688 242.72 241.534 242.862 241.688Z" fill="#263238"/>
<path d="M254.631 233.933C253.782 236.07 252.4 237.953 250.617 239.403C249.616 240.148 248.407 240.562 247.16 240.587C244.425 240.658 243.69 238.338 243.608 236.207C243.561 235.071 243.652 233.934 243.88 232.82C247.253 234.328 251.02 234.718 254.631 233.933Z" fill="white"/>
<path d="M252.998 236.953C252.867 237.131 252.725 237.332 252.571 237.51C251.71 237.61 250.84 237.61 249.979 237.51C251.009 237.32 252.015 237.143 252.998 236.953Z" fill="#DBDBDB"/>
<path d="M247.232 237.28C246.567 237.286 245.904 237.214 245.255 237.067C244.689 236.921 244.139 236.722 243.609 236.475C243.609 236.404 243.609 236.309 243.609 236.238C243.609 236.167 243.609 236.001 243.609 235.883C244.786 236.424 245.997 236.891 247.232 237.28Z" fill="#DBDBDB"/>
<path d="M254.407 227.803C254.407 227.803 255.863 232.539 256.242 234.777C256.242 234.99 255.745 235.179 254.987 235.345C254.987 235.345 254.928 235.345 254.893 235.345C253.003 236.023 250.963 236.169 248.996 235.766C247.029 235.363 245.21 234.427 243.739 233.06C243.689 233.022 243.656 232.966 243.647 232.904C243.638 232.842 243.654 232.779 243.692 232.729C243.73 232.678 243.786 232.645 243.848 232.636C243.91 232.627 243.973 232.644 244.023 232.681C247.25 234.182 250.877 234.598 254.36 233.865C254.36 233.214 251.565 225.814 251.933 225.814C253.484 225.814 256.254 226.039 257.284 226.122C256.396 223.043 253.46 214.436 251.861 208.824C251.767 208.48 252.3 208.267 252.43 208.587C255.352 214.776 257.859 221.152 259.936 227.673C260.09 228.218 255.378 228.028 254.407 227.803Z" fill="#263238"/>
<path d="M231.412 218.211C231.428 217.373 231.669 216.555 232.111 215.843C232.372 215.472 232.706 215.157 233.093 214.919C233.48 214.681 233.911 214.524 234.361 214.458C234.821 214.404 235.288 214.458 235.724 214.616C236.16 214.774 236.552 215.032 236.871 215.37C237.421 215.968 237.826 216.685 238.055 217.465C238.178 217.933 238.273 218.407 238.339 218.886C238.479 219.884 238.39 220.9 238.078 221.858C238.024 221.131 237.889 220.412 237.676 219.715C237.494 219.088 237.268 218.475 237.001 217.88C236.421 216.696 235.545 215.713 234.538 215.903C233.532 216.092 232.81 216.992 232.549 218.271C232.328 219.648 232.241 221.044 232.289 222.438C231.68 221.114 231.381 219.668 231.412 218.211Z" fill="#263238"/>
<path d="M263.666 211.931C263.339 211.172 262.811 210.517 262.139 210.036C261.758 209.788 261.331 209.621 260.882 209.546C260.434 209.47 259.975 209.488 259.534 209.598C259.087 209.719 258.675 209.944 258.331 210.255C257.987 210.566 257.722 210.953 257.557 211.386C257.271 212.141 257.17 212.953 257.261 213.754C257.315 214.234 257.406 214.709 257.533 215.175C257.768 216.155 258.235 217.065 258.895 217.827C258.664 217.137 258.517 216.421 258.457 215.696C258.404 215.042 258.404 214.385 258.457 213.731C258.528 212.393 258.978 211.185 259.984 210.984C260.991 210.782 261.997 211.327 262.731 212.464C263.454 213.658 264.061 214.919 264.543 216.229C264.598 214.747 264.297 213.273 263.666 211.931Z" fill="#263238"/>
<path d="M188.812 229.694C203.079 229.848 209.497 212.467 205.388 199.041C205.388 199.041 243.466 201.811 243.477 171.382C246.374 175.325 250.196 178.494 254.606 180.611C259.017 182.727 263.88 183.726 268.768 183.518L273.658 194.447C277.47 193.097 280.939 181.849 270.946 173.762C270.946 173.762 269.407 158.69 257.721 150.272C254.558 147.845 250.76 146.383 246.786 146.064C242.812 145.745 238.83 146.581 235.32 148.472C228.462 144.104 220.173 142.575 212.208 144.21C198.45 146.814 193.465 159.838 193.465 159.838C193.465 159.838 174.959 164.574 172.568 178.001C171.796 181.83 171.845 185.779 172.713 189.588C173.58 193.396 175.246 196.977 177.6 200.094C177.6 200.094 173.219 205.6 176.274 216.801C178.192 223.94 184.538 229.694 188.812 229.694Z" fill="#263238"/>
<path d="M242.46 168.766C242.893 171.207 243.067 173.688 242.981 176.166C242.964 178.611 242.646 181.044 242.034 183.412C240.866 188.097 237.974 192.169 233.935 194.814C230.016 197.667 224.996 198.366 220.213 199.123C217.762 199.194 215.299 199.443 212.824 199.372C210.35 199.301 207.875 199.112 205.365 199.064C207.816 199.502 210.291 199.846 212.777 200.248C215.263 200.651 217.785 200.402 220.319 200.485C225.292 199.988 230.525 199.301 234.894 196.282C239.244 193.363 242.278 188.859 243.348 183.731C244.317 178.748 244.012 173.6 242.46 168.766Z" fill="#263238"/>
<path d="M193.466 159.836C188.668 160.157 183.988 161.467 179.72 163.684C175.266 165.88 171.731 169.578 169.739 174.127C168.903 176.442 168.443 178.877 168.377 181.337C168.222 183.78 168.486 186.23 169.159 188.583C170.424 193.345 173.438 197.455 177.601 200.092C174.013 197.063 171.518 192.941 170.497 188.358C169.497 183.87 169.809 179.189 171.396 174.873C172.216 172.774 173.421 170.846 174.948 169.19C176.57 167.559 178.388 166.135 180.359 164.951C184.43 162.562 188.854 160.836 193.466 159.836Z" fill="#263238"/>
<path d="M235.367 148.516C238.854 147.006 242.559 146.063 246.343 145.722C250.031 145.363 253.749 145.958 257.141 147.45C260.458 149.082 263.309 151.526 265.429 154.554C267.617 157.662 269.34 161.072 270.544 164.678C269.976 160.817 268.613 157.116 266.542 153.809C264.537 150.319 261.5 147.535 257.85 145.839C254.2 144.143 250.114 143.618 246.153 144.337C242.298 144.933 238.618 146.359 235.367 148.516Z" fill="#263238"/>
<path d="M262.98 185.138C258.756 183.976 254.754 182.12 251.14 179.644C249.373 178.41 247.781 176.945 246.404 175.287C245.013 173.577 243.821 171.714 242.852 169.734C243.181 171.994 243.988 174.158 245.22 176.081C246.454 178.038 248.064 179.732 249.956 181.065C251.831 182.396 253.905 183.423 256.101 184.108C258.317 184.846 260.644 185.195 262.98 185.138Z" fill="#263238"/>
<path d="M232.964 235.943C229.834 236.163 226.704 235.5 223.932 234.03C221.159 232.559 218.855 230.34 217.281 227.625C215.708 224.91 214.928 221.807 215.03 218.671C215.133 215.534 216.114 212.489 217.862 209.882C219.609 207.276 222.053 205.212 224.916 203.926C227.779 202.64 230.945 202.183 234.054 202.607C237.164 203.032 240.092 204.32 242.505 206.326C244.918 208.333 246.72 210.976 247.705 213.956C249.091 218.178 248.748 222.777 246.751 226.747C244.754 230.717 241.265 233.734 237.049 235.138C235.725 235.57 234.353 235.84 232.964 235.943ZM230.774 204.732C229.566 204.82 228.373 205.054 227.222 205.431C223.715 206.59 220.783 209.041 219.02 212.287C217.258 215.532 216.799 219.327 217.737 222.899C218.674 226.471 220.938 229.551 224.067 231.512C227.196 233.474 230.955 234.169 234.578 233.457C238.202 232.744 241.417 230.677 243.57 227.677C245.723 224.677 246.652 220.969 246.167 217.308C245.682 213.647 243.82 210.308 240.96 207.972C238.101 205.636 234.458 204.477 230.774 204.732Z" fill="#F7B905"/>
<path d="M269.266 228.697C262.861 229.147 256.609 223.002 254.975 214.406C254.135 210.312 254.59 206.058 256.278 202.235C256.906 200.549 257.958 199.055 259.333 197.895C260.709 196.736 262.36 195.952 264.127 195.619C265.895 195.285 267.718 195.414 269.421 195.992C271.124 196.57 272.649 197.579 273.848 198.92C276.815 201.858 278.79 205.65 279.496 209.765C281.213 218.846 277.128 227.276 270.355 228.555C269.996 228.626 269.632 228.673 269.266 228.697ZM265.383 197.724C265.098 197.724 264.826 197.724 264.542 197.83C263.148 198.162 261.854 198.824 260.768 199.759C259.682 200.694 258.837 201.876 258.302 203.206C256.809 206.599 256.416 210.375 257.177 214.004C258.669 221.866 264.376 227.418 269.941 226.365C275.506 225.311 278.785 218.077 277.294 210.203C276.68 206.545 274.937 203.171 272.309 200.554C271.416 199.624 270.339 198.892 269.146 198.405C267.953 197.917 266.671 197.685 265.383 197.724Z" fill="#F7B905"/>
<path d="M247.669 215.938L246.201 214.754C247.977 212.587 252.393 209.296 256.478 212.279L255.294 213.795C251.707 211.107 247.835 215.748 247.669 215.938Z" fill="#F7B905"/>
<path d="M181.343 232.207L179.531 231.662C179.792 230.822 182.112 223.374 186.126 221.918C189.891 220.568 215.205 218.2 216.283 218.094L216.46 219.976C209.202 220.651 189.678 222.64 186.777 223.694C184.125 224.665 181.958 230.171 181.343 232.207Z" fill="#F7B905"/>
<path d="M203.33 227.657C203.33 227.657 190.708 214.444 184.563 219.156C178.418 223.869 189.477 244.151 197.812 245.879C198.864 246.175 199.964 246.256 201.048 246.117C202.131 245.977 203.175 245.621 204.117 245.068C205.059 244.515 205.88 243.777 206.53 242.9C207.18 242.022 207.646 241.022 207.9 239.959L203.33 227.657Z" fill="#AD6359"/>
<path d="M187.878 224.883C187.855 224.891 187.834 224.906 187.819 224.926C187.805 224.947 187.797 224.971 187.797 224.996C187.797 225.021 187.805 225.045 187.819 225.065C187.834 225.085 187.855 225.101 187.878 225.108C193.798 226.494 197.445 231.182 200.298 236.191C198.345 234.391 195.93 233.609 193.49 235.989C193.36 236.12 193.49 236.321 193.692 236.262C194.617 235.805 195.66 235.645 196.68 235.804C197.699 235.963 198.645 236.433 199.387 237.15C200.616 238.363 201.711 239.705 202.655 241.152C202.986 241.601 203.839 241.152 203.566 240.666L203.495 240.536C202.548 233.467 195.562 224.433 187.878 224.883Z" fill="#263238"/>
<path d="M190.175 271.132C188.233 268.764 200.724 261.66 203.968 264.336C207.212 267.011 223.634 308.665 218.306 353.858C212.978 399.051 125.505 447.749 122.249 440.988C120.899 438.147 122.627 430.226 124.759 427.692C127.754 424.14 190.921 384.926 197.16 356.901C202.701 331.978 195.1 277.289 190.175 271.132Z" fill="#455A64"/>
<path d="M239.418 270.19C236.789 265.206 250.322 269.219 251.802 271.907C253.282 274.595 271.374 317.775 274.5 346.002C275.684 357.309 280.124 387.75 280.124 387.75C280.124 387.75 266.91 346.913 256.017 312.72C251.387 298.207 245.843 284.002 239.418 270.19Z" fill="#455A64"/>
<path d="M495.516 448.449C495.516 448.449 509.368 398.472 520.38 381.505C531.391 364.539 552.063 345.891 552.063 345.891C552.063 345.891 551.625 422.934 495.516 448.449Z" fill="#F7B905"/>
<path d="M496.51 447.55C501.171 439.742 505.381 431.674 509.119 423.385C510.709 414.454 513.009 405.664 515.998 397.1C516.058 396.946 516.283 397.029 516.247 397.195C514.412 405.08 512.269 412.906 510.327 420.78C515.916 408.62 521.232 396.307 527.886 384.81C529.422 379.254 531.579 373.888 534.315 368.814C534.386 368.672 534.623 368.743 534.552 368.897C532.866 372.807 531.423 376.816 530.23 380.903C533.368 375.772 536.886 370.884 540.756 366.28C541.005 365.996 541.49 366.28 541.241 366.624C532.338 378.049 526.193 391.038 520.344 404.192C526.638 397.327 532.446 390.032 537.725 382.359C537.725 382.288 537.891 382.359 537.843 382.442C532.343 391.045 526.116 399.161 519.231 406.702C514.968 416.34 510.777 426.013 505.698 435.189C515.856 426.558 523.671 415.393 531.402 404.618C531.419 404.593 531.441 404.572 531.467 404.556C531.492 404.539 531.52 404.528 531.55 404.522C531.58 404.517 531.61 404.517 531.64 404.524C531.669 404.53 531.697 404.542 531.722 404.559C531.747 404.576 531.768 404.598 531.785 404.623C531.801 404.649 531.812 404.677 531.818 404.707C531.823 404.736 531.823 404.767 531.817 404.796C531.81 404.826 531.798 404.854 531.781 404.879C524.038 416.719 516.034 427.836 504.904 436.586C502.65 440.616 500.167 444.513 497.469 448.261C497.375 448.388 497.234 448.472 497.077 448.496C496.921 448.519 496.761 448.479 496.634 448.385C496.507 448.291 496.422 448.15 496.399 447.993C496.376 447.837 496.416 447.677 496.51 447.55Z" fill="#263238"/>
<path d="M491.218 452.948C491.218 452.948 516.082 406.867 508.883 362.195C501.685 317.522 493.906 301.609 493.906 301.609C493.906 301.609 454.774 371.098 491.218 452.948Z" fill="#F7B905"/>
<path d="M481.001 380.509C483.109 393.168 486.326 405.616 490.615 417.711C490.686 401.312 490.994 384.926 491.432 368.527C488.62 358.579 487.029 348.325 486.696 337.992C486.696 337.696 487.134 337.708 487.157 337.992C487.945 346.848 489.406 355.631 491.526 364.265C491.905 350.744 492.339 337.222 492.829 323.701C492.829 323.654 492.847 323.609 492.881 323.575C492.914 323.542 492.959 323.523 493.006 323.523C493.053 323.523 493.099 323.542 493.132 323.575C493.165 323.609 493.184 323.654 493.184 323.701C493.184 344.824 493.184 365.946 493.042 387.081C496.079 378.912 498.478 370.52 500.217 361.98C500.223 361.964 500.234 361.951 500.247 361.942C500.261 361.933 500.277 361.928 500.294 361.928C500.31 361.928 500.327 361.933 500.34 361.942C500.354 361.951 500.365 361.964 500.371 361.98C499.613 371.842 496.629 381.386 493.018 390.538C492.923 404.047 492.781 417.545 492.474 431.054C496.689 416.692 501.188 402.792 502.407 387.613C502.407 387.593 502.411 387.573 502.419 387.554C502.427 387.536 502.438 387.519 502.452 387.505C502.467 387.49 502.484 387.479 502.502 387.471C502.521 387.463 502.541 387.459 502.561 387.459C502.581 387.459 502.601 387.463 502.62 387.471C502.639 387.479 502.656 387.49 502.67 387.505C502.684 387.519 502.696 387.536 502.703 387.554C502.711 387.573 502.715 387.593 502.715 387.613C502.395 404.343 498.098 421.322 492.616 437.057C492.555 437.212 492.457 437.351 492.331 437.46C492.213 442.385 492.071 447.319 491.905 452.26C491.905 452.404 491.848 452.543 491.746 452.645C491.644 452.747 491.505 452.804 491.361 452.804C491.216 452.804 491.078 452.747 490.975 452.645C490.873 452.543 490.816 452.404 490.816 452.26C490.611 442.164 490.528 432.069 490.567 421.973C484.979 408.949 481.995 394.516 480.752 380.533C480.776 380.403 480.989 380.379 481.001 380.509Z" fill="#263238"/>
<path d="M482.705 373.385C483.58 377.395 484.162 381.463 484.445 385.557C484.445 385.699 484.244 385.711 484.208 385.557C483.24 381.565 482.556 377.509 482.16 373.421C482.124 373.137 482.645 373.077 482.705 373.385Z" fill="#263238"/>
<path d="M497.28 339.699C497.28 339.557 497.517 339.604 497.517 339.699C497.486 342.542 497.064 345.366 496.262 348.094C496.203 348.319 495.883 348.212 495.931 347.999C496.463 345.264 496.795 342.481 497.28 339.699Z" fill="#263238"/>
<path d="M482.148 456.474C482.148 456.474 483.155 408.368 469.432 384.463C455.71 360.558 432.941 348.375 432.941 348.375C432.941 348.375 442.117 433.161 482.148 456.474Z" fill="#F7B905"/>
<path d="M457.13 415.343C462.896 423.69 468.639 431.742 475.707 439.023C472.96 429.188 469.803 419.519 466.235 410.015C458.539 403.231 450.914 396.198 446.19 386.915C446.119 386.773 446.332 386.643 446.415 386.785C451.494 395.002 458.255 401.585 465.418 407.908C459.916 393.586 453.538 379.616 446.32 366.077C446.296 366.009 446.296 365.936 446.32 365.868C446.344 365.8 446.391 365.743 446.453 365.707C446.515 365.67 446.587 365.657 446.658 365.668C446.729 365.679 446.794 365.715 446.841 365.769C451.23 372.868 455.23 380.2 458.823 387.732C457.533 382.582 456.455 377.325 455.188 372.222C455.181 372.194 455.184 372.163 455.199 372.138C455.213 372.112 455.237 372.094 455.265 372.086C455.294 372.078 455.324 372.082 455.349 372.096C455.375 372.11 455.394 372.134 455.402 372.163C457.841 378.592 460.256 385.696 461.037 392.563C465.844 403.233 469.884 414.233 473.126 425.478C472.771 418.268 472.321 411.093 471.587 403.894C471.587 403.764 471.8 403.728 471.824 403.894C473.347 411.876 474.042 419.994 473.896 428.119C475.873 435.282 477.542 442.54 478.88 449.845C478.88 450.046 478.632 450.129 478.584 449.928C477.838 446.861 477.021 443.83 476.216 440.799C476.216 440.799 476.11 440.799 476.062 440.799C468.698 433.375 461.712 424.934 457.118 415.473C457.024 415.331 457.095 415.296 457.13 415.343Z" fill="#263238"/>
<path d="M441.229 376.199C442.756 377.856 444.153 379.609 445.633 381.314C447.068 382.757 448.39 384.309 449.588 385.955C449.588 386.026 449.588 386.109 449.481 386.061C447.753 384.775 446.215 383.253 444.911 381.538C443.466 379.926 442.159 378.195 441.004 376.364C440.921 376.234 441.122 376.08 441.229 376.199Z" fill="#263238"/>
<path d="M522.926 450.602L521.198 465.994L515.976 512.667H470.511L465.313 466.017L463.572 450.625H522.938L522.926 450.602Z" fill="#455A64"/>
<path d="M522.926 450.602L521.198 465.994H465.313L463.572 450.602H522.938H522.926Z" fill="#37474F"/>
<path d="M459.522 456.883H526.963V439.419H459.522V456.883Z" fill="#455A64"/>
<path d="M461.346 496.578H325.305V512.681H461.346V496.578Z" fill="#37474F"/>
<path d="M357.533 496.578H351.992V512.681H357.533V496.578Z" fill="#455A64"/>
<path d="M445.337 496.578H432.041V512.681H445.337V496.578Z" fill="#455A64"/>
<path d="M451.554 449.508H312.6V470.784H451.554V449.508Z" fill="#37474F"/>
<path d="M426.975 456.406H393.598V463.877H426.975V456.406Z" fill="#F7B905"/>
<path d="M443.704 460.134C443.761 461.018 443.551 461.899 443.101 462.662C442.651 463.424 441.983 464.035 441.182 464.412C440.381 464.79 439.484 464.919 438.61 464.781C437.735 464.643 436.921 464.245 436.276 463.639C435.63 463.033 435.181 462.247 434.987 461.383C434.794 460.518 434.865 459.616 435.191 458.792C435.517 457.969 436.083 457.262 436.816 456.765C437.549 456.267 438.414 456.002 439.3 456.002C440.432 455.967 441.531 456.382 442.357 457.157C443.183 457.932 443.667 459.003 443.704 460.134Z" fill="#F7B905"/>
<path d="M376.098 430.68H305.898V449.458H376.098V430.68Z" fill="#263238"/>
<path d="M440.981 430.68H376.098V449.458H440.981V430.68Z" fill="#263238"/>
<path d="M376.098 432.633H305.898V447.516H376.098V432.633Z" fill="white"/>
<path d="M312.008 435.714C319.364 435.619 326.721 435.548 334.078 435.501L344.059 435.43L366.117 435.501C373.469 435.501 368.745 435.607 376.098 435.714C368.745 435.82 373.469 435.891 366.117 435.939L344.059 435.998L334.078 435.939C326.721 435.876 319.364 435.801 312.008 435.714Z" fill="#DBDBDB"/>
<path d="M312.008 438.612C319.364 438.51 326.721 438.439 334.078 438.399L344.059 438.328L366.117 438.387C373.469 438.387 368.745 438.506 376.098 438.612C368.745 438.719 373.469 438.79 366.117 438.825L344.059 438.896L334.078 438.825C326.721 438.794 319.364 438.723 312.008 438.612Z" fill="#DBDBDB"/>
<path d="M312.008 441.522C319.364 441.428 326.721 441.357 334.078 441.309L344.059 441.25L366.117 441.309C373.469 441.309 368.745 441.428 376.098 441.522C368.745 441.629 373.469 441.712 366.117 441.747H344.059H334.078C326.721 441.708 319.364 441.633 312.008 441.522Z" fill="#DBDBDB"/>
<path d="M312.008 444.448C319.364 444.346 326.721 444.275 334.078 444.235L344.059 444.164L366.117 444.235C373.469 444.235 368.745 444.342 376.098 444.448C368.745 444.555 373.469 444.626 366.117 444.661L344.059 444.732L334.078 444.661C326.721 444.63 319.364 444.559 312.008 444.448Z" fill="#DBDBDB"/>
<path d="M399.611 430.68H390.471V449.458H399.611V430.68Z" fill="#455A64"/>
<path d="M437.629 430.68H431.484V449.458H437.629V430.68Z" fill="#455A64"/>
<path d="M366.78 496.57H445.836V470.759H366.78V496.57Z" fill="#F7B905"/>
<path d="M306.751 496.57H366.779V470.759H306.751V496.57Z" fill="#F7B905"/>
<path d="M366.78 493.891H445.836V473.443H366.78V493.891Z" fill="white"/>
<path d="M440.708 489.69C434.552 489.801 428.391 489.872 422.226 489.904L403.744 489.975L385.262 489.904C379.097 489.904 372.932 489.832 366.768 489.69C372.94 489.588 379.105 489.517 385.262 489.477L403.744 489.406L422.226 489.477C428.391 489.517 434.552 489.588 440.708 489.69Z" fill="#DBDBDB"/>
<path d="M440.708 485.674C434.552 485.785 428.391 485.856 422.226 485.887L403.744 485.958L385.262 485.899C379.097 485.852 372.932 485.777 366.768 485.674C372.94 485.572 379.105 485.501 385.262 485.461L403.744 485.438L422.226 485.509C428.391 485.516 434.552 485.572 440.708 485.674Z" fill="#DBDBDB"/>
<path d="M440.708 481.659C434.552 481.762 428.391 481.837 422.226 481.884L403.744 481.943L385.262 481.884C379.097 481.837 372.932 481.762 366.768 481.659C372.94 481.557 379.105 481.486 385.262 481.446L403.744 481.375L422.226 481.446C428.391 481.486 434.552 481.557 440.708 481.659Z" fill="#DBDBDB"/>
<path d="M440.708 477.651C434.552 477.754 428.391 477.829 422.226 477.876L403.744 477.936L385.262 477.876C379.097 477.876 372.932 477.801 366.768 477.651C372.94 477.541 379.105 477.47 385.262 477.438L403.744 477.367L422.226 477.438C428.395 477.474 434.528 477.557 440.708 477.651Z" fill="#DBDBDB"/>
<path d="M327.543 470.773H316.307V496.585H327.543V470.773Z" fill="#455A64"/>
<path d="M372.864 122.735C372.862 130.569 370.684 138.248 366.573 144.917C362.462 151.586 356.579 156.982 349.581 160.503C342.583 164.024 334.744 165.533 326.939 164.86C319.133 164.187 311.668 161.359 305.376 156.692L284.656 161.984L293.288 142.685C290.252 137.014 288.549 130.726 288.309 124.298C288.069 117.87 289.297 111.472 291.902 105.59C294.506 99.7087 298.417 94.4984 303.338 90.3558C308.259 86.2131 314.06 83.2471 320.299 81.6833C326.538 80.1195 333.052 79.9991 339.345 81.3313C345.638 82.6634 351.544 85.4131 356.615 89.3711C361.685 93.3291 365.786 98.3913 368.606 104.173C371.426 109.954 372.89 116.302 372.888 122.735H372.864Z" fill="white"/>
<path d="M372.865 122.732C372.854 130.569 370.682 138.25 366.59 144.932C365.562 146.575 364.44 148.157 363.227 149.668C361.966 151.156 360.614 152.564 359.178 153.884C358.477 154.56 357.742 155.2 356.976 155.802L354.608 157.566C353.826 158.146 352.962 158.608 352.133 159.14L350.89 159.91C350.464 160.147 350.014 160.348 349.587 160.561C348.699 160.988 347.835 161.437 346.947 161.84L344.2 162.87C343.286 163.22 342.348 163.505 341.394 163.723C340.447 163.948 339.523 164.267 338.553 164.409C336.631 164.788 334.684 165.025 332.727 165.12C330.757 165.276 328.778 165.276 326.807 165.12C322.893 164.799 319.042 163.947 315.358 162.586C311.676 161.198 308.199 159.318 305.022 156.997L305.377 157.068L284.681 162.444L283.639 162.716L284.077 161.733L292.661 142.411V142.92C289.59 137.187 287.896 130.819 287.712 124.319C287.475 117.806 288.733 111.325 291.389 105.374C294.045 99.422 298.028 94.1573 303.033 89.983C308.018 85.8369 313.887 82.8882 320.189 81.3635C326.449 79.846 332.973 79.7674 339.268 81.1335C345.563 82.4995 351.467 85.2748 356.536 89.2506C361.605 93.2264 365.706 98.2994 368.532 104.088C371.358 109.877 372.836 116.231 372.853 122.673L372.865 122.732ZM372.865 122.732C372.831 116.312 371.341 109.983 368.507 104.222C365.672 98.4612 361.568 93.4185 356.502 89.4739C351.423 85.5774 345.537 82.8669 339.275 81.5411C333.003 80.2777 326.526 80.4518 320.331 82.0502C314.162 83.6245 308.436 86.5891 303.589 90.7171C298.785 94.8716 294.949 100.029 292.353 105.825C289.798 111.63 288.596 117.939 288.836 124.277C289.076 130.615 290.752 136.815 293.738 142.411L293.868 142.659L293.762 142.92L285.107 162.207L284.503 161.485L305.259 156.287H305.448L305.614 156.405C311.807 161.099 319.188 163.97 326.926 164.693C328.854 164.875 330.794 164.903 332.727 164.776C334.661 164.697 336.588 164.488 338.493 164.149C339.452 164.019 340.376 163.699 341.323 163.486C342.273 163.288 343.208 163.019 344.117 162.681L346.852 161.698L349.481 160.455C349.919 160.242 350.369 160.052 350.795 159.815L351.979 159.069C352.796 158.56 353.672 158.11 354.454 157.542L356.822 155.802C357.589 155.205 358.324 154.569 359.024 153.895C360.457 152.585 361.809 151.189 363.073 149.716C364.293 148.207 365.42 146.625 366.448 144.98C370.599 138.298 372.82 130.598 372.865 122.732Z" fill="#263238"/>
<path d="M323.706 147.906L304.75 128.714L311.12 122.415L322.19 133.627L345.207 97.5625L352.749 102.37L323.706 147.906Z" fill="#F7B905"/>
</svg>
